<svg xmlns="http://www.w3.org/2000/svg" xmlns:xlink="http://www.w3.org/1999/xlink" width="1440" height="2560" viewBox="0 0 1440 2560"><title>World / quantum_bathroom</title><defs><linearGradient id="wall" x1="0" y1="0" x2="0" y2="1"><stop offset="0" stop-color="#241143" stop-opacity="1"/><stop offset="1" stop-color="#160A2C" stop-opacity="1"/></linearGradient><linearGradient id="floor" x1="0" y1="0" x2="0" y2="1"><stop offset="0" stop-color="#1C0F36" stop-opacity="1"/><stop offset="1" stop-color="#0C0620" stop-opacity="1"/></linearGradient><radialGradient id="lamp" cx="0.5" cy="0.5" r="0.5"><stop offset="0" stop-color="#C77DFF" stop-opacity="0.95"/><stop offset="0.45" stop-color="#C77DFF" stop-opacity="0.35"/><stop offset="1" stop-color="#C77DFF" stop-opacity="0"/></radialGradient><radialGradient id="vig" cx="0.5" cy="0.5" r="0.5"><stop offset="0" stop-color="#000" stop-opacity="0"/><stop offset="0.62" stop-color="#000" stop-opacity="0.1"/><stop offset="1" stop-color="#000" stop-opacity="0.62"/></radialGradient><radialGradient id="steam" cx="0.5" cy="0.5" r="0.5"><stop offset="0" stop-color="#FFFFFF" stop-opacity="0.55"/><stop offset="1" stop-color="#FFFFFF" stop-opacity="0"/></radialGradient><filter id="b8" x="-60%" y="-60%" width="220%" height="220%"><feGaussianBlur stdDeviation="8"/></filter><filter id="b30" x="-60%" y="-60%" width="220%" height="220%"><feGaussianBlur stdDeviation="30"/></filter><filter id="b60" x="-60%" y="-60%" width="220%" height="220%"><feGaussianBlur stdDeviation="60"/></filter><filter id="neon" x="-80%" y="-80%" width="260%" height="260%"><feDropShadow dx="0" dy="0" stdDeviation="18" flood-color="#00F0FF" flood-opacity="0.95"/></filter></defs><g id="midground" ><circle cx="720" cy="760" r="290" fill="#12042A"/><circle cx="720" cy="760" r="300" fill="none" stroke="#00F0FF" stroke-width="18" opacity="0.9" filter="url(#neon)"/><circle cx="720" cy="760" r="250" fill="none" stroke="#C77DFF" stroke-width="12" opacity="0.8" filter="url(#neon)"/><circle cx="720" cy="760" r="200" fill="none" stroke="#00F0FF" stroke-width="8" opacity="0.6" filter="url(#neon)"/><ellipse cx="720" cy="760" rx="200" ry="200" fill="url(#lamp)" opacity="0.35"/><rect x="220" y="1180" width="60" height="60" rx="10" fill="none" stroke="#00F0FF" stroke-width="6" opacity="0.7" transform="rotate(20 250 1210)" filter="url(#neon)"/><rect x="1140" y="1080" width="60" height="60" rx="10" fill="none" stroke="#00F0FF" stroke-width="6" opacity="0.7" transform="rotate(-15 1170 1110)" filter="url(#neon)"/><rect x="300" y="640" width="60" height="60" rx="10" fill="none" stroke="#00F0FF" stroke-width="6" opacity="0.7" transform="rotate(35 330 670)" filter="url(#neon)"/><rect x="1080" y="520" width="60" height="60" rx="10" fill="none" stroke="#00F0FF" stroke-width="6" opacity="0.7" transform="rotate(-25 1110 550)" filter="url(#neon)"/></g></svg>