<svg xmlns="http://www.w3.org/2000/svg" xmlns:xlink="http://www.w3.org/1999/xlink" width="432" height="432" viewBox="0 0 432 432"><defs><linearGradient id="bg_brand" x1="0" y1="0" x2="0" y2="1"><stop offset="0" stop-color="#2B4A86" stop-opacity="1"/><stop offset="0.55" stop-color="#1B2A4A" stop-opacity="1"/><stop offset="1" stop-color="#0A1122" stop-opacity="1"/></linearGradient><radialGradient id="spot" cx="0.5" cy="0.5" r="0.5"><stop offset="0" stop-color="#FFD166" stop-opacity="0.55"/><stop offset="0.6" stop-color="#F5A623" stop-opacity="0.18"/><stop offset="1" stop-color="#F5A623" stop-opacity="0"/></radialGradient><linearGradient id="title" x1="0" y1="0" x2="0" y2="1"><stop offset="0" stop-color="#FFF7CC" stop-opacity="1"/><stop offset="0.5" stop-color="#FFD166" stop-opacity="1"/><stop offset="1" stop-color="#C08A12" stop-opacity="1"/></linearGradient><radialGradient id="vig" cx="0.5" cy="0.5" r="0.5"><stop offset="0" stop-color="#000" stop-opacity="0"/><stop offset="1" stop-color="#000" stop-opacity="0.55"/></radialGradient><filter id="glg" x="-80%" y="-80%" width="260%" height="260%"><feDropShadow dx="0" dy="0" stdDeviation="16" flood-color="#FFD166" flood-opacity="0.95"/></filter><filter id="b12" x="-60%" y="-60%" width="220%" height="220%"><feGaussianBlur stdDeviation="12"/></filter></defs><svg xmlns="http://www.w3.org/2000/svg" xmlns:xlink="http://www.w3.org/1999/xlink" x="82" y="90" width="267" height="267" viewBox="0 0 512 512"><title>Poop Clicker / classic / happy</title><defs><radialGradient id="body_classic" cx="0.36" cy="0.28" r="0.85"><stop offset="0" stop-color="#C99150" stop-opacity="1"/><stop offset="0.55" stop-color="#A9712F" stop-opacity="1"/><stop offset="1" stop-color="#6B3E16" stop-opacity="1"/></radialGradient><radialGradient id="tip_classic" cx="0.35" cy="0.25" r="0.9"><stop offset="0" stop-color="#E0B57C" stop-opacity="1"/><stop offset="1" stop-color="#A9712F" stop-opacity="1"/></radialGradient><radialGradient id="shadow" cx="0.5" cy="0.5" r="0.5"><stop offset="0" stop-color="#000" stop-opacity="0.45"/><stop offset="1" stop-color="#000" stop-opacity="0"/></radialGradient><linearGradient id="gloss_classic" x1="0" y1="0" x2="0" y2="1"><stop offset="0" stop-color="#FFFFFF" stop-opacity="0.55"/><stop offset="1" stop-color="#FFFFFF" stop-opacity="0"/></linearGradient><filter id="soft" x="-60%" y="-60%" width="220%" height="220%"><feGaussianBlur stdDeviation="8"/></filter><filter id="soft2" x="-60%" y="-60%" width="220%" height="220%"><feGaussianBlur stdDeviation="18"/></filter><filter id="glow_a" x="-80%" y="-80%" width="260%" height="260%"><feDropShadow dx="0" dy="0" stdDeviation="10" flood-color="#FFD166" flood-opacity="0.95"/></filter></defs><g id="poop_character" data-anchor="256,402" data-skin="classic" data-expression="happy"><g id="shadow" data-anchor="256,470" ><ellipse cx="256" cy="470" rx="168" ry="30" fill="url(#shadow)"/></g><g id="arm_left" data-anchor="118,372" ><path d="M118,372 Q50.8,347.2 6,310" fill="none" stroke="#A9712F" stroke-width="28" stroke-linecap="round"/><path d="M118,372 Q50.8,347.2 6,310" fill="none" stroke="#2A1509" stroke-width="34" stroke-linecap="round" opacity="0.001"/><circle cx="6" cy="310" r="27" fill="#C99150" stroke="#2A1509" stroke-width="6"/></g><g id="arm_right" data-anchor="394,372" ><path d="M394,372 Q461.2,347.2 506,310" fill="none" stroke="#A9712F" stroke-width="28" stroke-linecap="round"/><path d="M394,372 Q461.2,347.2 506,310" fill="none" stroke="#2A1509" stroke-width="34" stroke-linecap="round" opacity="0.001"/><circle cx="506" cy="310" r="27" fill="#C99150" stroke="#2A1509" stroke-width="6"/></g><g id="body" data-anchor="256,402" ><path d="M88.0,402.0 C82.0,265.5 432.0,265.5 424.0,402.0 C424.0,459.4 88.0,459.4 88.0,402.0 Z" fill="url(#body_classic)" stroke="#2A1509" stroke-width="7" stroke-linejoin="round"/><path d="M122.0,316.0 C116.0,199.0 372.0,199.0 378.0,316.0 C378.0,365.2 122.0,365.2 122.0,316.0 Z" fill="url(#body_classic)" stroke="#2A1509" stroke-width="7" stroke-linejoin="round"/><path d="M167.0,240.0 C161.0,148.4 357.0,148.4 351.0,240.0 C351.0,278.5 167.0,278.5 167.0,240.0 Z" fill="url(#body_classic)" stroke="#2A1509" stroke-width="7" stroke-linejoin="round"/></g><g id="top_swirl" data-anchor="264,192" ><path d="M214.0,192.0 C208.0,133.5 314.0,133.5 314.0,192.0 C314.0,216.6 214.0,216.6 214.0,192.0 Z" fill="url(#tip_classic)" stroke="#2A1509" stroke-width="7" stroke-linejoin="round"/><path d="M234,178 C226,108 310,100 298,166 C292,128 256,130 260,176 Z" fill="url(#tip_classic)" stroke="#2A1509" stroke-width="7" stroke-linejoin="round"/></g><g id="highlight" data-anchor="256,300" ><ellipse cx="176" cy="372" rx="52" ry="26" fill="url(#gloss_classic)" transform="rotate(-24 176 372)"/><ellipse cx="188" cy="292" rx="40" ry="19" fill="url(#gloss_classic)" transform="rotate(-22 188 292)"/><ellipse cx="214" cy="224" rx="30" ry="14" fill="url(#gloss_classic)" transform="rotate(-20 214 224)"/></g><g id="eyes" data-anchor="256,296" ><path d="M181,306 Q211,266 241,306" fill="none" stroke="#2A1509" stroke-width="12" stroke-linecap="round"/><path d="M271,306 Q301,266 331,306" fill="none" stroke="#2A1509" stroke-width="12" stroke-linecap="round"/></g><g id="mouth" data-anchor="256,366" ><path d="M194,352 Q256,438 318,352 Z" fill="#5A1F18" stroke="#2A1509" stroke-width="7"/><path d="M216,392 Q256,424 296,392 Z" fill="#E8636B"/></g></g></svg></svg>