<svg xmlns="http://www.w3.org/2000/svg" xmlns:xlink="http://www.w3.org/1999/xlink" width="1920" height="1080" viewBox="0 0 1920 1080"><defs><linearGradient id="bg_brand" x1="0" y1="0" x2="0" y2="1"><stop offset="0" stop-color="#2B4A86" stop-opacity="1"/><stop offset="0.55" stop-color="#1B2A4A" stop-opacity="1"/><stop offset="1" stop-color="#0A1122" stop-opacity="1"/></linearGradient><radialGradient id="spot" cx="0.5" cy="0.5" r="0.5"><stop offset="0" stop-color="#FFD166" stop-opacity="0.55"/><stop offset="0.6" stop-color="#F5A623" stop-opacity="0.18"/><stop offset="1" stop-color="#F5A623" stop-opacity="0"/></radialGradient><linearGradient id="title" x1="0" y1="0" x2="0" y2="1"><stop offset="0" stop-color="#FFF7CC" stop-opacity="1"/><stop offset="0.5" stop-color="#FFD166" stop-opacity="1"/><stop offset="1" stop-color="#C08A12" stop-opacity="1"/></linearGradient><radialGradient id="vig" cx="0.5" cy="0.5" r="0.5"><stop offset="0" stop-color="#000" stop-opacity="0"/><stop offset="1" stop-color="#000" stop-opacity="0.55"/></radialGradient><filter id="glg" x="-80%" y="-80%" width="260%" height="260%"><feDropShadow dx="0" dy="0" stdDeviation="16" flood-color="#FFD166" flood-opacity="0.95"/></filter><filter id="b12" x="-60%" y="-60%" width="220%" height="220%"><feGaussianBlur stdDeviation="12"/></filter></defs><rect width="1920" height="1080" fill="url(#bg_brand)"/><circle cx="1320" cy="520" r="520" fill="url(#spot)"/><path d="M1320,520 L2220,520" stroke="#FFD166" stroke-width="14" opacity="0.12"/><path d="M1320,520 L2189,753" stroke="#FFD166" stroke-width="14" opacity="0.12"/><path d="M1320,520 L2099,970" stroke="#FFD166" stroke-width="14" opacity="0.12"/><path d="M1320,520 L1956,1156" stroke="#FFD166" stroke-width="14" opacity="0.12"/><path d="M1320,520 L1770,1299" stroke="#FFD166" stroke-width="14" opacity="0.12"/><path d="M1320,520 L1553,1389" stroke="#FFD166" stroke-width="14" opacity="0.12"/><path d="M1320,520 L1320,1420" stroke="#FFD166" stroke-width="14" opacity="0.12"/><path d="M1320,520 L1087,1389" stroke="#FFD166" stroke-width="14" opacity="0.12"/><path d="M1320,520 L870,1299" stroke="#FFD166" stroke-width="14" opacity="0.12"/><path d="M1320,520 L684,1156" stroke="#FFD166" stroke-width="14" opacity="0.12"/><path d="M1320,520 L541,970" stroke="#FFD166" stroke-width="14" opacity="0.12"/><path d="M1320,520 L451,753" stroke="#FFD166" stroke-width="14" opacity="0.12"/><path d="M1320,520 L420,520" stroke="#FFD166" stroke-width="14" opacity="0.12"/><path d="M1320,520 L451,287" stroke="#FFD166" stroke-width="14" opacity="0.12"/><path d="M1320,520 L541,70" stroke="#FFD166" stroke-width="14" opacity="0.12"/><path d="M1320,520 L684,-116" stroke="#FFD166" stroke-width="14" opacity="0.12"/><path d="M1320,520 L870,-259" stroke="#FFD166" stroke-width="14" opacity="0.12"/><path d="M1320,520 L1087,-349" stroke="#FFD166" stroke-width="14" opacity="0.12"/><path d="M1320,520 L1320,-380" stroke="#FFD166" stroke-width="14" opacity="0.12"/><path d="M1320,520 L1553,-349" stroke="#FFD166" stroke-width="14" opacity="0.12"/><path d="M1320,520 L1770,-259" stroke="#FFD166" stroke-width="14" opacity="0.12"/><path d="M1320,520 L1956,-116" stroke="#FFD166" stroke-width="14" opacity="0.12"/><path d="M1320,520 L2099,70" stroke="#FFD166" stroke-width="14" opacity="0.12"/><path d="M1320,520 L2189,287" stroke="#FFD166" stroke-width="14" opacity="0.12"/><svg xmlns="http://www.w3.org/2000/svg" xmlns:xlink="http://www.w3.org/1999/xlink" x="1080" y="300" width="520" height="520" viewBox="0 0 512 512"><defs><linearGradient id="porc" x1="0" y1="0" x2="0" y2="1"><stop offset="0" stop-color="#FFFFFF" stop-opacity="1"/><stop offset="0.55" stop-color="#F4F7FA" stop-opacity="1"/><stop offset="1" stop-color="#C8D2DC" stop-opacity="1"/></linearGradient><linearGradient id="porc2" x1="0" y1="0" x2="0" y2="1"><stop offset="0" stop-color="#F4F7FA" stop-opacity="1"/><stop offset="1" stop-color="#B9C5D1" stop-opacity="1"/></linearGradient><radialGradient id="water" cx="0.5" cy="0.5" r="0.5"><stop offset="0" stop-color="#8FD8FF" stop-opacity="1"/><stop offset="0.6" stop-color="#3FA9F5" stop-opacity="1"/><stop offset="1" stop-color="#1E7FC4" stop-opacity="1"/></radialGradient><radialGradient id="sludge" cx="0.5" cy="0.5" r="0.5"><stop offset="0" stop-color="#A5682A" stop-opacity="1"/><stop offset="1" stop-color="#5E3512" stop-opacity="1"/></radialGradient><filter id="soft" x="-60%" y="-60%" width="220%" height="220%"><feGaussianBlur stdDeviation="6"/></filter><filter id="soft2" x="-60%" y="-60%" width="220%" height="220%"><feGaussianBlur stdDeviation="14"/></filter><filter id="gl_w" x="-80%" y="-80%" width="260%" height="260%"><feDropShadow dx="0" dy="0" stdDeviation="8" flood-color="#7FD4FF" flood-opacity="0.95"/></filter><radialGradient id="vortex" cx="0.5" cy="0.5" r="0.5"><stop offset="0" stop-color="#FFFFFF" stop-opacity="0.95"/><stop offset="0.4" stop-color="#7FD4FF" stop-opacity="0.9"/><stop offset="1" stop-color="#1E7FC4" stop-opacity="0.1"/></radialGradient></defs><g id="toilet_flush" data-anchor="256,428" data-state="flush"><g id="tank" data-anchor="256,158" ><rect x="150" y="92" width="212" height="132" rx="18" fill="url(#porc)" stroke="#5C6B78" stroke-width="6" /><rect x="142" y="76" width="228" height="30" rx="12" fill="url(#porc2)" stroke="#5C6B78" stroke-width="6" /><rect x="176" y="120" width="30" height="80" rx="12" fill="#FFFFFF" opacity="0.6"/></g><g id="handle" data-anchor="160,139" ><rect x="126" y="132" width="34" height="14" rx="7" fill="#C0C7CF" stroke="#5C6B78" stroke-width="4"/><circle cx="126" cy="139" r="13" fill="#DDE3E9" stroke="#5C6B78" stroke-width="4"/></g><g id="base" data-anchor="256,428" ><path d="M178.0,250.0L334.0,250.0L318.0,400.0L300.0,428.0L212.0,428.0L194.0,400.0Z" fill="url(#porc)" stroke="#5C6B78" stroke-width="6" stroke-linejoin="round"/><path d="M196,268 q22,110 34,150" fill="none" stroke="#FFFFFF" stroke-width="12" opacity="0.65"/><rect x="186" y="420" width="140" height="40" rx="12" fill="url(#porc2)" stroke="#5C6B78" stroke-width="6" /></g><g id="rim_shadow" ><ellipse cx="256" cy="256" rx="92" ry="26" fill="#7E8C99" opacity="0.35"/></g><g id="water" data-anchor="256,254" ><ellipse cx="256" cy="254" rx="72" ry="20" fill="url(#water)" stroke="#1E7FC4" stroke-width="3"/><ellipse cx="238" cy="249" rx="22" ry="6" fill="#FFFFFF" opacity="0.55"/></g><g id="seat" data-anchor="256,250" ><path fill-rule="evenodd" d="M256,212 a108,38 0 1,0 0.1,0 Z M256,232 a76,22 0 1,1 -0.1,0 Z" fill="url(#porc)" stroke="#5C6B78" stroke-width="6"/></g><ellipse cx="256" cy="254" rx="78" ry="24" fill="url(#vortex)"/><polyline points="262.0,254.0 262.9,254.2 263.7,254.6 264.3,254.9 264.7,255.3 264.9,255.8 264.9,256.3 264.6,256.8 264.0,257.3 263.1,257.8 261.9,258.3 260.5,258.7 258.8,259.1 256.8,259.5 254.6,259.7 252.2,259.9 249.6,260.0 246.9,260.0 244.1,259.9 241.3,259.6 238.6,259.3 235.9,258.8 233.3,258.2 231.0,257.5 228.9,256.7 227.1,255.8 225.7,254.8 224.6,253.7 224.0,252.6 223.9,251.4 224.3,250.2 225.2,248.9 226.6,247.7 228.6,246.5 231.1,245.4 234.1,244.4 237.5,243.4 241.5,242.6 245.8,241.9 250.5,241.3 255.5,240.9 260.7,240.7 266.1,240.7 271.5,240.9 277.0,241.3 282.3,241.8 287.5,242.6 292.4,243.6 297.0,244.8 301.1,246.2 304.7,247.7 307.7,249.4 310.1,251.2 311.7,253.1 312.7,255.1 312.8,257.1 312.1,259.2 310.5,261.2 308.1,263.2 304.9,265.2 300.9,267.0 296.1,268.7 290.5,270.3 284.4,271.6 277.6,272.8 270.3,273.7 262.6,274.3 254.6,274.7 246.4,274.8 238.1,274.6 229.8,274.1 221.7,273.3 213.9,272.1 206.5,270.8 199.6,269.1 193.3,267.2 187.8,265.0 183.1,262.6 179.3,260.1 176.5,257.4 174.8,254.6 174.2,251.7 174.8,248.7 176.5,245.8 179.4,243.0 183.4,240.2 188.6,237.6 194.8,235.1 202.1,232.9 210.2,230.9 219.2,229.2 228.9,227.8 239.2,226.7 249.9,226.0 260.9,225.7 272.1,225.8 283.3,226.3 294.3,227.2 304.9,228.5 315.1,230.2 324.7,232.2 333.5,234.6 341.3,237.3 348.1,240.3 353.7,243.5 358.1,247.0 361.0,250.6 362.6,254.3 362.7,258.1 361.3,261.9 358.3,265.6 353.9,269.3 348.1,272.8 340.8,276.1 332.2,279.1 322.5,281.8 311.6,284.2 299.7,286.2 287.1,287.8 273.8,289.0 260.0,289.6 246.0,289.8 231.9,289.5 217.9,288.7 204.2,287.3 191.0,285.5 178.6,283.2 167.0,280.5 156.5,277.4 147.3,273.9 139.4,270.0 133.1,265.9 128.3,261.5 125.3,257.0 124.1,252.4 124.7,247.7 127.2,243.1 131.5,238.5 137.6,234.1 145.4,229.9" fill="none" stroke="#FFFFFF" stroke-width="6" stroke-linecap="round" opacity="0.9" filter="url(#gl_w)"/><ellipse cx="180" cy="216" rx="9" ry="12.6" fill="#8FD8FF" opacity="0.9" transform="rotate(-30 180 216)"/><ellipse cx="210" cy="190" rx="7" ry="9.799999999999999" fill="#8FD8FF" opacity="0.8" transform="rotate(-18 210 190)"/><ellipse cx="300" cy="192" rx="8" ry="11.2" fill="#8FD8FF" opacity="0.85" transform="rotate(20 300 192)"/><ellipse cx="332" cy="218" rx="10" ry="14.0" fill="#8FD8FF" opacity="0.9" transform="rotate(34 332 218)"/><ellipse cx="256" cy="176" rx="8" ry="11.2" fill="#8FD8FF" opacity="0.8" transform="rotate(0 256 176)"/></g></svg><svg xmlns="http://www.w3.org/2000/svg" xmlns:xlink="http://www.w3.org/1999/xlink" x="1130" y="210" width="420" height="420" viewBox="0 0 512 512"><title>Poop Clicker / classic / happy</title><defs><radialGradient id="body_classic" cx="0.36" cy="0.28" r="0.85"><stop offset="0" stop-color="#C99150" stop-opacity="1"/><stop offset="0.55" stop-color="#A9712F" stop-opacity="1"/><stop offset="1" stop-color="#6B3E16" stop-opacity="1"/></radialGradient><radialGradient id="tip_classic" cx="0.35" cy="0.25" r="0.9"><stop offset="0" stop-color="#E0B57C" stop-opacity="1"/><stop offset="1" stop-color="#A9712F" stop-opacity="1"/></radialGradient><radialGradient id="shadow" cx="0.5" cy="0.5" r="0.5"><stop offset="0" stop-color="#000" stop-opacity="0.45"/><stop offset="1" stop-color="#000" stop-opacity="0"/></radialGradient><linearGradient id="gloss_classic" x1="0" y1="0" x2="0" y2="1"><stop offset="0" stop-color="#FFFFFF" stop-opacity="0.55"/><stop offset="1" stop-color="#FFFFFF" stop-opacity="0"/></linearGradient><filter id="soft" x="-60%" y="-60%" width="220%" height="220%"><feGaussianBlur stdDeviation="8"/></filter><filter id="soft2" x="-60%" y="-60%" width="220%" height="220%"><feGaussianBlur stdDeviation="18"/></filter><filter id="glow_a" x="-80%" y="-80%" width="260%" height="260%"><feDropShadow dx="0" dy="0" stdDeviation="10" flood-color="#FFD166" flood-opacity="0.95"/></filter></defs><g id="poop_character" data-anchor="256,402" data-skin="classic" data-expression="happy"><g id="shadow" data-anchor="256,470" ><ellipse cx="256" cy="470" rx="168" ry="30" fill="url(#shadow)"/></g><g id="arm_left" data-anchor="118,372" ><path d="M118,372 Q50.8,347.2 6,310" fill="none" stroke="#A9712F" stroke-width="28" stroke-linecap="round"/><path d="M118,372 Q50.8,347.2 6,310" fill="none" stroke="#2A1509" stroke-width="34" stroke-linecap="round" opacity="0.001"/><circle cx="6" cy="310" r="27" fill="#C99150" stroke="#2A1509" stroke-width="6"/></g><g id="arm_right" data-anchor="394,372" ><path d="M394,372 Q461.2,347.2 506,310" fill="none" stroke="#A9712F" stroke-width="28" stroke-linecap="round"/><path d="M394,372 Q461.2,347.2 506,310" fill="none" stroke="#2A1509" stroke-width="34" stroke-linecap="round" opacity="0.001"/><circle cx="506" cy="310" r="27" fill="#C99150" stroke="#2A1509" stroke-width="6"/></g><g id="body" data-anchor="256,402" ><path d="M88.0,402.0 C82.0,265.5 432.0,265.5 424.0,402.0 C424.0,459.4 88.0,459.4 88.0,402.0 Z" fill="url(#body_classic)" stroke="#2A1509" stroke-width="7" stroke-linejoin="round"/><path d="M122.0,316.0 C116.0,199.0 372.0,199.0 378.0,316.0 C378.0,365.2 122.0,365.2 122.0,316.0 Z" fill="url(#body_classic)" stroke="#2A1509" stroke-width="7" stroke-linejoin="round"/><path d="M167.0,240.0 C161.0,148.4 357.0,148.4 351.0,240.0 C351.0,278.5 167.0,278.5 167.0,240.0 Z" fill="url(#body_classic)" stroke="#2A1509" stroke-width="7" stroke-linejoin="round"/></g><g id="top_swirl" data-anchor="264,192" ><path d="M214.0,192.0 C208.0,133.5 314.0,133.5 314.0,192.0 C314.0,216.6 214.0,216.6 214.0,192.0 Z" fill="url(#tip_classic)" stroke="#2A1509" stroke-width="7" stroke-linejoin="round"/><path d="M234,178 C226,108 310,100 298,166 C292,128 256,130 260,176 Z" fill="url(#tip_classic)" stroke="#2A1509" stroke-width="7" stroke-linejoin="round"/></g><g id="highlight" data-anchor="256,300" ><ellipse cx="176" cy="372" rx="52" ry="26" fill="url(#gloss_classic)" transform="rotate(-24 176 372)"/><ellipse cx="188" cy="292" rx="40" ry="19" fill="url(#gloss_classic)" transform="rotate(-22 188 292)"/><ellipse cx="214" cy="224" rx="30" ry="14" fill="url(#gloss_classic)" transform="rotate(-20 214 224)"/></g><g id="eyes" data-anchor="256,296" ><path d="M181,306 Q211,266 241,306" fill="none" stroke="#2A1509" stroke-width="12" stroke-linecap="round"/><path d="M271,306 Q301,266 331,306" fill="none" stroke="#2A1509" stroke-width="12" stroke-linecap="round"/></g><g id="mouth" data-anchor="256,366" ><path d="M194,352 Q256,438 318,352 Z" fill="#5A1F18" stroke="#2A1509" stroke-width="7"/><path d="M216,392 Q256,424 296,392 Z" fill="#E8636B"/></g></g></svg><svg xmlns="http://www.w3.org/2000/svg" xmlns:xlink="http://www.w3.org/1999/xlink" x="1130" y="210" width="420" height="420" viewBox="0 0 512 512"><defs><linearGradient id="gold" x1="0" y1="0" x2="0" y2="1"><stop offset="0" stop-color="#FFE9A8" stop-opacity="1"/><stop offset="0.5" stop-color="#E8B32A" stop-opacity="1"/><stop offset="1" stop-color="#9A6C05" stop-opacity="1"/></linearGradient><linearGradient id="steel" x1="0" y1="0" x2="0" y2="1"><stop offset="0" stop-color="#EDF3F7" stop-opacity="1"/><stop offset="0.5" stop-color="#9AA4B2" stop-opacity="1"/><stop offset="1" stop-color="#4A5866" stop-opacity="1"/></linearGradient><linearGradient id="cloth" x1="0" y1="0" x2="0" y2="1"><stop offset="0" stop-color="#E0403A" stop-opacity="1"/><stop offset="1" stop-color="#8A1410" stop-opacity="1"/></linearGradient><radialGradient id="halo" cx="0.5" cy="0.5" r="0.5"><stop offset="0" stop-color="#FFF7CC" stop-opacity="0.9"/><stop offset="1" stop-color="#FFD166" stop-opacity="0"/></radialGradient><radialGradient id="auraP" cx="0.5" cy="0.5" r="0.5"><stop offset="0" stop-color="#C77DFF" stop-opacity="0"/><stop offset="0.6" stop-color="#C77DFF" stop-opacity="0.45"/><stop offset="1" stop-color="#7B2CBF" stop-opacity="0"/></radialGradient><filter id="gl" x="-80%" y="-80%" width="260%" height="260%"><feDropShadow dx="0" dy="0" stdDeviation="10" flood-color="#FFD166" flood-opacity="0.95"/></filter><filter id="glc" x="-80%" y="-80%" width="260%" height="260%"><feDropShadow dx="0" dy="0" stdDeviation="10" flood-color="#00F0FF" flood-opacity="0.95"/></filter><filter id="b6" x="-60%" y="-60%" width="220%" height="220%"><feGaussianBlur stdDeviation="6"/></filter></defs><g id="crown" data-anchor="264,150" data-rig="poop_512"><path d="M164,180 L182,96 L226,146 L264,80 L302,146 L346,96 L364,180 Z" fill="url(#gold)" stroke="#2A1509" stroke-width="7" stroke-linejoin="round"/><rect x="158" y="176" width="212" height="34" rx="12" fill="url(#gold)" stroke="#2A1509" stroke-width="7" /><circle cx="226" cy="150" r="11" fill="#D9382C" stroke="#2A1509" stroke-width="4"/><circle cx="264" cy="96" r="11" fill="#2D7FF9" stroke="#2A1509" stroke-width="4"/><circle cx="302" cy="150" r="11" fill="#43B02A" stroke="#2A1509" stroke-width="4"/></g></svg><svg xmlns="http://www.w3.org/2000/svg" xmlns:xlink="http://www.w3.org/1999/xlink" x="1130" y="210" width="420" height="420" viewBox="0 0 512 512"><defs><linearGradient id="gold" x1="0" y1="0" x2="0" y2="1"><stop offset="0" stop-color="#FFE9A8" stop-opacity="1"/><stop offset="0.5" stop-color="#E8B32A" stop-opacity="1"/><stop offset="1" stop-color="#9A6C05" stop-opacity="1"/></linearGradient><linearGradient id="steel" x1="0" y1="0" x2="0" y2="1"><stop offset="0" stop-color="#EDF3F7" stop-opacity="1"/><stop offset="0.5" stop-color="#9AA4B2" stop-opacity="1"/><stop offset="1" stop-color="#4A5866" stop-opacity="1"/></linearGradient><linearGradient id="cloth" x1="0" y1="0" x2="0" y2="1"><stop offset="0" stop-color="#E0403A" stop-opacity="1"/><stop offset="1" stop-color="#8A1410" stop-opacity="1"/></linearGradient><radialGradient id="halo" cx="0.5" cy="0.5" r="0.5"><stop offset="0" stop-color="#FFF7CC" stop-opacity="0.9"/><stop offset="1" stop-color="#FFD166" stop-opacity="0"/></radialGradient><radialGradient id="auraP" cx="0.5" cy="0.5" r="0.5"><stop offset="0" stop-color="#C77DFF" stop-opacity="0"/><stop offset="0.6" stop-color="#C77DFF" stop-opacity="0.45"/><stop offset="1" stop-color="#7B2CBF" stop-opacity="0"/></radialGradient><filter id="gl" x="-80%" y="-80%" width="260%" height="260%"><feDropShadow dx="0" dy="0" stdDeviation="10" flood-color="#FFD166" flood-opacity="0.95"/></filter><filter id="glc" x="-80%" y="-80%" width="260%" height="260%"><feDropShadow dx="0" dy="0" stdDeviation="10" flood-color="#00F0FF" flood-opacity="0.95"/></filter><filter id="b6" x="-60%" y="-60%" width="220%" height="220%"><feGaussianBlur stdDeviation="6"/></filter></defs><g id="shades" data-anchor="264,150" data-rig="poop_512"><rect x="158" y="264" width="196" height="8" rx="4" fill="#1B1B22"/><rect x="162" y="268" width="92" height="62" rx="16" fill="#101828" stroke="#1B1B22" stroke-width="6" /><rect x="258" y="268" width="92" height="62" rx="16" fill="#101828" stroke="#1B1B22" stroke-width="6" /><rect x="254" y="286" width="10" height="10" fill="#1B1B22"/><path d="M176,282 l30,-8" stroke="#FFFFFF" stroke-width="6" opacity="0.5"/></g></svg><svg xmlns="http://www.w3.org/2000/svg" xmlns:xlink="http://www.w3.org/1999/xlink" x="820" y="620" width="260" height="260" viewBox="0 0 512 512"><title>Poop Clicker / corny / happy</title><defs><radialGradient id="body_corny" cx="0.36" cy="0.28" r="0.85"><stop offset="0" stop-color="#CC9551" stop-opacity="1"/><stop offset="0.55" stop-color="#AD7530" stop-opacity="1"/><stop offset="1" stop-color="#6B3E16" stop-opacity="1"/></radialGradient><radialGradient id="tip_corny" cx="0.35" cy="0.25" r="0.9"><stop offset="0" stop-color="#E4BA82" stop-opacity="1"/><stop offset="1" stop-color="#AD7530" stop-opacity="1"/></radialGradient><radialGradient id="shadow" cx="0.5" cy="0.5" r="0.5"><stop offset="0" stop-color="#000" stop-opacity="0.45"/><stop offset="1" stop-color="#000" stop-opacity="0"/></radialGradient><linearGradient id="gloss_corny" x1="0" y1="0" x2="0" y2="1"><stop offset="0" stop-color="#FFFFFF" stop-opacity="0.55"/><stop offset="1" stop-color="#FFFFFF" stop-opacity="0"/></linearGradient><filter id="soft" x="-60%" y="-60%" width="220%" height="220%"><feGaussianBlur stdDeviation="8"/></filter><filter id="soft2" x="-60%" y="-60%" width="220%" height="220%"><feGaussianBlur stdDeviation="18"/></filter><filter id="glow_a" x="-80%" y="-80%" width="260%" height="260%"><feDropShadow dx="0" dy="0" stdDeviation="10" flood-color="#FFD84D" flood-opacity="0.95"/></filter></defs><g id="poop_character" data-anchor="256,402" data-skin="corny" data-expression="happy"><g id="shadow" data-anchor="256,470" ><ellipse cx="256" cy="470" rx="168" ry="30" fill="url(#shadow)"/></g><g id="arm_left" data-anchor="118,372" ><path d="M118,372 Q50.8,347.2 6,310" fill="none" stroke="#AD7530" stroke-width="28" stroke-linecap="round"/><path d="M118,372 Q50.8,347.2 6,310" fill="none" stroke="#2A1509" stroke-width="34" stroke-linecap="round" opacity="0.001"/><circle cx="6" cy="310" r="27" fill="#CC9551" stroke="#2A1509" stroke-width="6"/></g><g id="arm_right" data-anchor="394,372" ><path d="M394,372 Q461.2,347.2 506,310" fill="none" stroke="#AD7530" stroke-width="28" stroke-linecap="round"/><path d="M394,372 Q461.2,347.2 506,310" fill="none" stroke="#2A1509" stroke-width="34" stroke-linecap="round" opacity="0.001"/><circle cx="506" cy="310" r="27" fill="#CC9551" stroke="#2A1509" stroke-width="6"/></g><g id="body" data-anchor="256,402" ><path d="M88.0,402.0 C82.0,265.5 432.0,265.5 424.0,402.0 C424.0,459.4 88.0,459.4 88.0,402.0 Z" fill="url(#body_corny)" stroke="#2A1509" stroke-width="7" stroke-linejoin="round"/><path d="M122.0,316.0 C116.0,199.0 372.0,199.0 378.0,316.0 C378.0,365.2 122.0,365.2 122.0,316.0 Z" fill="url(#body_corny)" stroke="#2A1509" stroke-width="7" stroke-linejoin="round"/><path d="M167.0,240.0 C161.0,148.4 357.0,148.4 351.0,240.0 C351.0,278.5 167.0,278.5 167.0,240.0 Z" fill="url(#body_corny)" stroke="#2A1509" stroke-width="7" stroke-linejoin="round"/></g><g id="top_swirl" data-anchor="264,192" ><path d="M214.0,192.0 C208.0,133.5 314.0,133.5 314.0,192.0 C314.0,216.6 214.0,216.6 214.0,192.0 Z" fill="url(#tip_corny)" stroke="#2A1509" stroke-width="7" stroke-linejoin="round"/><path d="M234,178 C226,108 310,100 298,166 C292,128 256,130 260,176 Z" fill="url(#tip_corny)" stroke="#2A1509" stroke-width="7" stroke-linejoin="round"/></g><g id="highlight" data-anchor="256,300" ><ellipse cx="176" cy="372" rx="52" ry="26" fill="url(#gloss_corny)" transform="rotate(-24 176 372)"/><ellipse cx="188" cy="292" rx="40" ry="19" fill="url(#gloss_corny)" transform="rotate(-22 188 292)"/><ellipse cx="214" cy="224" rx="30" ry="14" fill="url(#gloss_corny)" transform="rotate(-20 214 224)"/></g><g id="skin_corny" ><g transform="rotate(-10 196 398)"><ellipse cx="196" cy="398" rx="17" ry="13" fill="#FFD84D" stroke="#B8860B" stroke-width="4"/><ellipse cx="192" cy="394" rx="6" ry="4" fill="#FFF3B0"/></g><g transform="rotate(30 300 410)"><ellipse cx="300" cy="410" rx="17" ry="13" fill="#FFD84D" stroke="#B8860B" stroke-width="4"/><ellipse cx="296" cy="406" rx="6" ry="4" fill="#FFF3B0"/></g><g transform="rotate(-21 250 440)"><ellipse cx="250" cy="440" rx="17" ry="13" fill="#FFD84D" stroke="#B8860B" stroke-width="4"/><ellipse cx="246" cy="436" rx="6" ry="4" fill="#FFF3B0"/></g><g transform="rotate(-5 330 356)"><ellipse cx="330" cy="356" rx="17" ry="13" fill="#FFD84D" stroke="#B8860B" stroke-width="4"/><ellipse cx="326" cy="352" rx="6" ry="4" fill="#FFF3B0"/></g><g transform="rotate(11 176 330)"><ellipse cx="176" cy="330" rx="17" ry="13" fill="#FFD84D" stroke="#B8860B" stroke-width="4"/><ellipse cx="172" cy="326" rx="6" ry="4" fill="#FFF3B0"/></g><g transform="rotate(-27 322 294)"><ellipse cx="322" cy="294" rx="17" ry="13" fill="#FFD84D" stroke="#B8860B" stroke-width="4"/><ellipse cx="318" cy="290" rx="6" ry="4" fill="#FFF3B0"/></g><g transform="rotate(-26 206 356)"><ellipse cx="206" cy="356" rx="17" ry="13" fill="#FFD84D" stroke="#B8860B" stroke-width="4"/><ellipse cx="202" cy="352" rx="6" ry="4" fill="#FFF3B0"/></g><g transform="rotate(22 286 442)"><ellipse cx="286" cy="442" rx="17" ry="13" fill="#FFD84D" stroke="#B8860B" stroke-width="4"/><ellipse cx="282" cy="438" rx="6" ry="4" fill="#FFF3B0"/></g></g><g id="eyes" data-anchor="256,296" ><path d="M181,306 Q211,266 241,306" fill="none" stroke="#2A1509" stroke-width="12" stroke-linecap="round"/><path d="M271,306 Q301,266 331,306" fill="none" stroke="#2A1509" stroke-width="12" stroke-linecap="round"/></g><g id="mouth" data-anchor="256,366" ><path d="M194,352 Q256,438 318,352 Z" fill="#5A1F18" stroke="#2A1509" stroke-width="7"/><path d="M216,392 Q256,424 296,392 Z" fill="#E8636B"/></g></g></svg><svg xmlns="http://www.w3.org/2000/svg" xmlns:xlink="http://www.w3.org/1999/xlink" x="1560" y="600" width="260" height="260" viewBox="0 0 512 512"><title>Poop Clicker / diamond / happy</title><defs><radialGradient id="body_diamond" cx="0.36" cy="0.28" r="0.85"><stop offset="0" stop-color="#B8ECFF" stop-opacity="1"/><stop offset="0.55" stop-color="#77CBF0" stop-opacity="1"/><stop offset="1" stop-color="#1E6E9E" stop-opacity="1"/></radialGradient><radialGradient id="tip_diamond" cx="0.35" cy="0.25" r="0.9"><stop offset="0" stop-color="#E8FBFF" stop-opacity="1"/><stop offset="1" stop-color="#77CBF0" stop-opacity="1"/></radialGradient><radialGradient id="shadow" cx="0.5" cy="0.5" r="0.5"><stop offset="0" stop-color="#000" stop-opacity="0.45"/><stop offset="1" stop-color="#000" stop-opacity="0"/></radialGradient><linearGradient id="gloss_diamond" x1="0" y1="0" x2="0" y2="1"><stop offset="0" stop-color="#FFFFFF" stop-opacity="0.55"/><stop offset="1" stop-color="#FFFFFF" stop-opacity="0"/></linearGradient><filter id="soft" x="-60%" y="-60%" width="220%" height="220%"><feGaussianBlur stdDeviation="8"/></filter><filter id="soft2" x="-60%" y="-60%" width="220%" height="220%"><feGaussianBlur stdDeviation="18"/></filter><filter id="glow_a" x="-80%" y="-80%" width="260%" height="260%"><feDropShadow dx="0" dy="0" stdDeviation="10" flood-color="#FFFFFF" flood-opacity="0.95"/></filter></defs><g id="poop_character" data-anchor="256,402" data-skin="diamond" data-expression="happy"><g id="shadow" data-anchor="256,470" ><ellipse cx="256" cy="470" rx="168" ry="30" fill="url(#shadow)"/></g><g id="arm_left" data-anchor="118,372" ><path d="M118,372 Q50.8,347.2 6,310" fill="none" stroke="#77CBF0" stroke-width="28" stroke-linecap="round"/><path d="M118,372 Q50.8,347.2 6,310" fill="none" stroke="#0C2E44" stroke-width="34" stroke-linecap="round" opacity="0.001"/><circle cx="6" cy="310" r="27" fill="#B8ECFF" stroke="#0C2E44" stroke-width="6"/></g><g id="arm_right" data-anchor="394,372" ><path d="M394,372 Q461.2,347.2 506,310" fill="none" stroke="#77CBF0" stroke-width="28" stroke-linecap="round"/><path d="M394,372 Q461.2,347.2 506,310" fill="none" stroke="#0C2E44" stroke-width="34" stroke-linecap="round" opacity="0.001"/><circle cx="506" cy="310" r="27" fill="#B8ECFF" stroke="#0C2E44" stroke-width="6"/></g><g id="body" data-anchor="256,402" ><path d="M88.0,402.0 C82.0,265.5 432.0,265.5 424.0,402.0 C424.0,459.4 88.0,459.4 88.0,402.0 Z" fill="url(#body_diamond)" stroke="#0C2E44" stroke-width="7" stroke-linejoin="round"/><path d="M122.0,316.0 C116.0,199.0 372.0,199.0 378.0,316.0 C378.0,365.2 122.0,365.2 122.0,316.0 Z" fill="url(#body_diamond)" stroke="#0C2E44" stroke-width="7" stroke-linejoin="round"/><path d="M167.0,240.0 C161.0,148.4 357.0,148.4 351.0,240.0 C351.0,278.5 167.0,278.5 167.0,240.0 Z" fill="url(#body_diamond)" stroke="#0C2E44" stroke-width="7" stroke-linejoin="round"/></g><g id="top_swirl" data-anchor="264,192" ><path d="M214.0,192.0 C208.0,133.5 314.0,133.5 314.0,192.0 C314.0,216.6 214.0,216.6 214.0,192.0 Z" fill="url(#tip_diamond)" stroke="#0C2E44" stroke-width="7" stroke-linejoin="round"/><path d="M234,178 C226,108 310,100 298,166 C292,128 256,130 260,176 Z" fill="url(#tip_diamond)" stroke="#0C2E44" stroke-width="7" stroke-linejoin="round"/></g><g id="highlight" data-anchor="256,300" ><ellipse cx="176" cy="372" rx="52" ry="26" fill="url(#gloss_diamond)" transform="rotate(-24 176 372)"/><ellipse cx="188" cy="292" rx="40" ry="19" fill="url(#gloss_diamond)" transform="rotate(-22 188 292)"/><ellipse cx="214" cy="224" rx="30" ry="14" fill="url(#gloss_diamond)" transform="rotate(-20 214 224)"/></g><g id="skin_diamond" ><path d="M256.0,190.0L330.0,268.0L256.0,300.0L186.0,268.0Z" fill="#FFFFFF" opacity="0.18" stroke="#E8FBFF" stroke-width="3"/><path d="M186.0,268.0L256.0,300.0L222.0,386.0L150.0,330.0Z" fill="#FFFFFF" opacity="0.32" stroke="#E8FBFF" stroke-width="3"/><path d="M330.0,268.0L362.0,336.0L292.0,388.0L256.0,300.0Z" fill="#FFFFFF" opacity="0.46" stroke="#E8FBFF" stroke-width="3"/><path d="M150.0,330.0L222.0,386.0L196.0,448.0L128.0,396.0Z" fill="#FFFFFF" opacity="0.18" stroke="#E8FBFF" stroke-width="3"/><path d="M362.0,336.0L386.0,400.0L300.0,452.0L292.0,388.0Z" fill="#FFFFFF" opacity="0.32" stroke="#E8FBFF" stroke-width="3"/><path d="M222.0,386.0L292.0,388.0L300.0,452.0L196.0,448.0Z" fill="#FFFFFF" opacity="0.46" stroke="#E8FBFF" stroke-width="3"/><path d="M186,236 L232,206 L246,246 Z" fill="#FFFFFF" opacity="0.75"/></g><g id="eyes" data-anchor="256,296" ><path d="M181,306 Q211,266 241,306" fill="none" stroke="#0C2E44" stroke-width="12" stroke-linecap="round"/><path d="M271,306 Q301,266 331,306" fill="none" stroke="#0C2E44" stroke-width="12" stroke-linecap="round"/></g><g id="mouth" data-anchor="256,366" ><path d="M194,352 Q256,438 318,352 Z" fill="#5A1F18" stroke="#0C2E44" stroke-width="7"/><path d="M216,392 Q256,424 296,392 Z" fill="#E8636B"/></g></g></svg><svg xmlns="http://www.w3.org/2000/svg" xmlns:xlink="http://www.w3.org/1999/xlink" x="1480" y="200" width="260" height="260" viewBox="0 0 512 512"><defs><radialGradient id="burst_y" cx="0.5" cy="0.5" r="0.5"><stop offset="0" stop-color="#FFF7CC" stop-opacity="1"/><stop offset="0.45" stop-color="#FFD166" stop-opacity="1"/><stop offset="1" stop-color="#F5A623" stop-opacity="0"/></radialGradient><radialGradient id="burst_b" cx="0.5" cy="0.5" r="0.5"><stop offset="0" stop-color="#FFFFFF" stop-opacity="1"/><stop offset="0.4" stop-color="#8FD8FF" stop-opacity="0.95"/><stop offset="1" stop-color="#2FA8E8" stop-opacity="0"/></radialGradient><radialGradient id="frenzy" cx="0.5" cy="0.5" r="0.5"><stop offset="0" stop-color="#FFF0A0" stop-opacity="0"/><stop offset="0.55" stop-color="#FF9F1C" stop-opacity="0.55"/><stop offset="0.82" stop-color="#FF3B00" stop-opacity="0.45"/><stop offset="1" stop-color="#FF3B00" stop-opacity="0"/></radialGradient><radialGradient id="over" cx="0.5" cy="0.5" r="0.5"><stop offset="0" stop-color="#FFFFFF" stop-opacity="0"/><stop offset="0.5" stop-color="#FFE066" stop-opacity="0.65"/><stop offset="0.85" stop-color="#FF9F1C" stop-opacity="0.5"/><stop offset="1" stop-color="#FFB703" stop-opacity="0"/></radialGradient><radialGradient id="rew" cx="0.5" cy="0.5" r="0.5"><stop offset="0" stop-color="#FFFFFF" stop-opacity="0.95"/><stop offset="0.5" stop-color="#FFD166" stop-opacity="0.6"/><stop offset="1" stop-color="#F5A623" stop-opacity="0"/></radialGradient><filter id="gl_y" x="-80%" y="-80%" width="260%" height="260%"><feDropShadow dx="0" dy="0" stdDeviation="10" flood-color="#FFD166" flood-opacity="0.95"/></filter><filter id="gl_b" x="-80%" y="-80%" width="260%" height="260%"><feDropShadow dx="0" dy="0" stdDeviation="10" flood-color="#7FD4FF" flood-opacity="0.95"/></filter><filter id="b6" x="-60%" y="-60%" width="220%" height="220%"><feGaussianBlur stdDeviation="6"/></filter><filter id="b16" x="-60%" y="-60%" width="220%" height="220%"><feGaussianBlur stdDeviation="16"/></filter></defs><g id="crit_burst" data-anchor="256,256" ><path d="M346.0,256.0L299.9,266.0L337.1,295.0L291.2,284.1L312.1,326.4L275.5,296.5L276.0,343.7L256.0,301.0L236.0,343.7L236.5,296.5L199.9,326.4L220.8,284.1L174.9,295.0L212.1,266.0L166.0,256.0L212.1,246.0L174.9,217.0L220.8,227.9L199.9,185.6L236.5,215.5L236.0,168.3L256.0,211.0L276.0,168.3L275.5,215.5L312.1,185.6L291.2,227.9L337.1,217.0L299.9,246.0Z" fill="url(#burst_y)" opacity="0.93"/><path d="M256,256 L364,256" stroke="#FFD166" stroke-width="20" stroke-linecap="round" opacity="0.84"/><path d="M256,256 L356,297" stroke="#FFD166" stroke-width="20" stroke-linecap="round" opacity="0.84"/><path d="M256,256 L332,332" stroke="#FFD166" stroke-width="20" stroke-linecap="round" opacity="0.84"/><path d="M256,256 L297,356" stroke="#FFD166" stroke-width="20" stroke-linecap="round" opacity="0.84"/><path d="M256,256 L256,364" stroke="#FFD166" stroke-width="20" stroke-linecap="round" opacity="0.84"/><path d="M256,256 L215,356" stroke="#FFD166" stroke-width="20" stroke-linecap="round" opacity="0.84"/><path d="M256,256 L180,332" stroke="#FFD166" stroke-width="20" stroke-linecap="round" opacity="0.84"/><path d="M256,256 L156,297" stroke="#FFD166" stroke-width="20" stroke-linecap="round" opacity="0.84"/><path d="M256,256 L148,256" stroke="#FFD166" stroke-width="20" stroke-linecap="round" opacity="0.84"/><path d="M256,256 L156,215" stroke="#FFD166" stroke-width="20" stroke-linecap="round" opacity="0.84"/><path d="M256,256 L180,180" stroke="#FFD166" stroke-width="20" stroke-linecap="round" opacity="0.84"/><path d="M256,256 L215,156" stroke="#FFD166" stroke-width="20" stroke-linecap="round" opacity="0.84"/><path d="M256,256 L256,148" stroke="#FFD166" stroke-width="20" stroke-linecap="round" opacity="0.84"/><path d="M256,256 L297,156" stroke="#FFD166" stroke-width="20" stroke-linecap="round" opacity="0.84"/><path d="M256,256 L332,180" stroke="#FFD166" stroke-width="20" stroke-linecap="round" opacity="0.84"/><path d="M256,256 L356,215" stroke="#FFD166" stroke-width="20" stroke-linecap="round" opacity="0.84"/><circle cx="256" cy="256" r="58" fill="#FFF7CC" opacity="0.50" filter="url(#b16)"/><text x="256" y="286" font-family="Verdana,DejaVu Sans,sans-serif" font-size="96" font-weight="bold" fill="#8A5B08" text-anchor="middle" stroke="#FFF7CC" stroke-width="10" paint-order="stroke" opacity="0.95">PP</text></g></svg><text x="560" y="388.4" font-family="Verdana,DejaVu Sans,sans-serif" font-size="140" font-weight="bold" fill="#8A5B08" text-anchor="middle" stroke="#3A2103" stroke-width="18" paint-order="stroke">POOP</text><text x="560" y="380.0" font-family="Verdana,DejaVu Sans,sans-serif" font-size="140" font-weight="bold" fill="#FFD54A" text-anchor="middle" stroke="#3A2103" stroke-width="18" paint-order="stroke">POOP</text><text x="560" y="374.4" font-family="Verdana,DejaVu Sans,sans-serif" font-size="140" font-weight="bold" fill="#FFF0B0" text-anchor="middle" opacity="0.35">POOP</text><text x="560" y="517.2" font-family="Verdana,DejaVu Sans,sans-serif" font-size="140" font-weight="bold" fill="#8A5B08" text-anchor="middle" stroke="#3A2103" stroke-width="18" paint-order="stroke">CLICKER</text><text x="560" y="508.8" font-family="Verdana,DejaVu Sans,sans-serif" font-size="140" font-weight="bold" fill="#FFD54A" text-anchor="middle" stroke="#3A2103" stroke-width="18" paint-order="stroke">CLICKER</text><text x="560" y="503.2" font-family="Verdana,DejaVu Sans,sans-serif" font-size="140" font-weight="bold" fill="#FFF0B0" text-anchor="middle" opacity="0.35">CLICKER</text><text x="560" y="720" font-family="Verdana,DejaVu Sans,sans-serif" font-size="46" font-weight="bold" fill="#FFFFFF" text-anchor="middle" letter-spacing="6">THE ULTIMATE IDLE CLICKER</text><svg xmlns="http://www.w3.org/2000/svg" xmlns:xlink="http://www.w3.org/1999/xlink" x="300" y="840" width="110" height="110" viewBox="0 0 128 128"><defs><radialGradient id="pp_g" cx="0.5" cy="0.5" r="0.5"><stop offset="0" stop-color="#FFE9A8" stop-opacity="1"/><stop offset="0.5" stop-color="#F5A623" stop-opacity="1"/><stop offset="1" stop-color="#B36B00" stop-opacity="1"/></radialGradient><radialGradient id="gtp_g" cx="0.5" cy="0.5" r="0.5"><stop offset="0" stop-color="#D9C2FF" stop-opacity="1"/><stop offset="0.5" stop-color="#8E5CF7" stop-opacity="1"/><stop offset="1" stop-color="#4B22A8" stop-opacity="1"/></radialGradient><radialGradient id="fl_g" cx="0.5" cy="0.5" r="0.5"><stop offset="0" stop-color="#BFEBFF" stop-opacity="1"/><stop offset="0.5" stop-color="#2FA8E8" stop-opacity="1"/><stop offset="1" stop-color="#12608F" stop-opacity="1"/></radialGradient><linearGradient id="btn_green" x1="0" y1="0" x2="0" y2="1"><stop offset="0" stop-color="#68D94A" stop-opacity="1"/><stop offset="1" stop-color="#2E8C18" stop-opacity="1"/></linearGradient><linearGradient id="btn_blue" x1="0" y1="0" x2="0" y2="1"><stop offset="0" stop-color="#5EA5FF" stop-opacity="1"/><stop offset="1" stop-color="#1B54B8" stop-opacity="1"/></linearGradient><linearGradient id="btn_red" x1="0" y1="0" x2="0" y2="1"><stop offset="0" stop-color="#F0665A" stop-opacity="1"/><stop offset="1" stop-color="#A8180E" stop-opacity="1"/></linearGradient><linearGradient id="btn_grey" x1="0" y1="0" x2="0" y2="1"><stop offset="0" stop-color="#7C8496" stop-opacity="1"/><stop offset="1" stop-color="#464E5E" stop-opacity="1"/></linearGradient><linearGradient id="btn_gold" x1="0" y1="0" x2="0" y2="1"><stop offset="0" stop-color="#FFD97A" stop-opacity="1"/><stop offset="1" stop-color="#C08A12" stop-opacity="1"/></linearGradient><linearGradient id="panel_g" x1="0" y1="0" x2="0" y2="1"><stop offset="0" stop-color="#F7EFD9" stop-opacity="1"/><stop offset="1" stop-color="#E4D6B4" stop-opacity="1"/></linearGradient><linearGradient id="metal" x1="0" y1="0" x2="0" y2="1"><stop offset="0" stop-color="#E7EDF3" stop-opacity="1"/><stop offset="0.5" stop-color="#9AA4B2" stop-opacity="1"/><stop offset="1" stop-color="#5A6272" stop-opacity="1"/></linearGradient><filter id="gl" x="-80%" y="-80%" width="260%" height="260%"><feDropShadow dx="0" dy="0" stdDeviation="6" flood-color="#FFD166" flood-opacity="0.95"/></filter><filter id="b4" x="-60%" y="-60%" width="220%" height="220%"><feGaussianBlur stdDeviation="4"/></filter></defs><g id="pp" data-anchor="64.0,64.0" ><circle cx="64" cy="64" r="54" fill="url(#pp_g)" stroke="#12172A" stroke-width="7"/><circle cx="64" cy="64" r="42" fill="none" stroke="#FFF3C4" stroke-width="5" opacity="0.8"/><ellipse cx="48" cy="42" rx="16" ry="9" fill="#FFFFFF" opacity="0.5" transform="rotate(-30 48 42)"/><text x="64" y="80" font-family="Verdana,DejaVu Sans,sans-serif" font-size="38" font-weight="bold" fill="#FFFFFF" text-anchor="middle" stroke="#12172A" stroke-width="6" paint-order="stroke">PP</text></g></svg><svg xmlns="http://www.w3.org/2000/svg" xmlns:xlink="http://www.w3.org/1999/xlink" x="430" y="840" width="110" height="110" viewBox="0 0 128 128"><defs><radialGradient id="pp_g" cx="0.5" cy="0.5" r="0.5"><stop offset="0" stop-color="#FFE9A8" stop-opacity="1"/><stop offset="0.5" stop-color="#F5A623" stop-opacity="1"/><stop offset="1" stop-color="#B36B00" stop-opacity="1"/></radialGradient><radialGradient id="gtp_g" cx="0.5" cy="0.5" r="0.5"><stop offset="0" stop-color="#D9C2FF" stop-opacity="1"/><stop offset="0.5" stop-color="#8E5CF7" stop-opacity="1"/><stop offset="1" stop-color="#4B22A8" stop-opacity="1"/></radialGradient><radialGradient id="fl_g" cx="0.5" cy="0.5" r="0.5"><stop offset="0" stop-color="#BFEBFF" stop-opacity="1"/><stop offset="0.5" stop-color="#2FA8E8" stop-opacity="1"/><stop offset="1" stop-color="#12608F" stop-opacity="1"/></radialGradient><linearGradient id="btn_green" x1="0" y1="0" x2="0" y2="1"><stop offset="0" stop-color="#68D94A" stop-opacity="1"/><stop offset="1" stop-color="#2E8C18" stop-opacity="1"/></linearGradient><linearGradient id="btn_blue" x1="0" y1="0" x2="0" y2="1"><stop offset="0" stop-color="#5EA5FF" stop-opacity="1"/><stop offset="1" stop-color="#1B54B8" stop-opacity="1"/></linearGradient><linearGradient id="btn_red" x1="0" y1="0" x2="0" y2="1"><stop offset="0" stop-color="#F0665A" stop-opacity="1"/><stop offset="1" stop-color="#A8180E" stop-opacity="1"/></linearGradient><linearGradient id="btn_grey" x1="0" y1="0" x2="0" y2="1"><stop offset="0" stop-color="#7C8496" stop-opacity="1"/><stop offset="1" stop-color="#464E5E" stop-opacity="1"/></linearGradient><linearGradient id="btn_gold" x1="0" y1="0" x2="0" y2="1"><stop offset="0" stop-color="#FFD97A" stop-opacity="1"/><stop offset="1" stop-color="#C08A12" stop-opacity="1"/></linearGradient><linearGradient id="panel_g" x1="0" y1="0" x2="0" y2="1"><stop offset="0" stop-color="#F7EFD9" stop-opacity="1"/><stop offset="1" stop-color="#E4D6B4" stop-opacity="1"/></linearGradient><linearGradient id="metal" x1="0" y1="0" x2="0" y2="1"><stop offset="0" stop-color="#E7EDF3" stop-opacity="1"/><stop offset="0.5" stop-color="#9AA4B2" stop-opacity="1"/><stop offset="1" stop-color="#5A6272" stop-opacity="1"/></linearGradient><filter id="gl" x="-80%" y="-80%" width="260%" height="260%"><feDropShadow dx="0" dy="0" stdDeviation="6" flood-color="#FFD166" flood-opacity="0.95"/></filter><filter id="b4" x="-60%" y="-60%" width="220%" height="220%"><feGaussianBlur stdDeviation="4"/></filter></defs><g id="gtp" data-anchor="64.0,64.0" ><circle cx="64" cy="64" r="54" fill="url(#gtp_g)" stroke="#12172A" stroke-width="7"/><circle cx="64" cy="64" r="42" fill="none" stroke="#E7D6FF" stroke-width="5" opacity="0.8"/><ellipse cx="48" cy="42" rx="16" ry="9" fill="#FFFFFF" opacity="0.5" transform="rotate(-30 48 42)"/><text x="64" y="80" font-family="Verdana,DejaVu Sans,sans-serif" font-size="38" font-weight="bold" fill="#FFFFFF" text-anchor="middle" stroke="#12172A" stroke-width="6" paint-order="stroke">GTP</text></g></svg><svg xmlns="http://www.w3.org/2000/svg" xmlns:xlink="http://www.w3.org/1999/xlink" x="560" y="840" width="110" height="110" viewBox="0 0 128 128"><defs><radialGradient id="pp_g" cx="0.5" cy="0.5" r="0.5"><stop offset="0" stop-color="#FFE9A8" stop-opacity="1"/><stop offset="0.5" stop-color="#F5A623" stop-opacity="1"/><stop offset="1" stop-color="#B36B00" stop-opacity="1"/></radialGradient><radialGradient id="gtp_g" cx="0.5" cy="0.5" r="0.5"><stop offset="0" stop-color="#D9C2FF" stop-opacity="1"/><stop offset="0.5" stop-color="#8E5CF7" stop-opacity="1"/><stop offset="1" stop-color="#4B22A8" stop-opacity="1"/></radialGradient><radialGradient id="fl_g" cx="0.5" cy="0.5" r="0.5"><stop offset="0" stop-color="#BFEBFF" stop-opacity="1"/><stop offset="0.5" stop-color="#2FA8E8" stop-opacity="1"/><stop offset="1" stop-color="#12608F" stop-opacity="1"/></radialGradient><linearGradient id="btn_green" x1="0" y1="0" x2="0" y2="1"><stop offset="0" stop-color="#68D94A" stop-opacity="1"/><stop offset="1" stop-color="#2E8C18" stop-opacity="1"/></linearGradient><linearGradient id="btn_blue" x1="0" y1="0" x2="0" y2="1"><stop offset="0" stop-color="#5EA5FF" stop-opacity="1"/><stop offset="1" stop-color="#1B54B8" stop-opacity="1"/></linearGradient><linearGradient id="btn_red" x1="0" y1="0" x2="0" y2="1"><stop offset="0" stop-color="#F0665A" stop-opacity="1"/><stop offset="1" stop-color="#A8180E" stop-opacity="1"/></linearGradient><linearGradient id="btn_grey" x1="0" y1="0" x2="0" y2="1"><stop offset="0" stop-color="#7C8496" stop-opacity="1"/><stop offset="1" stop-color="#464E5E" stop-opacity="1"/></linearGradient><linearGradient id="btn_gold" x1="0" y1="0" x2="0" y2="1"><stop offset="0" stop-color="#FFD97A" stop-opacity="1"/><stop offset="1" stop-color="#C08A12" stop-opacity="1"/></linearGradient><linearGradient id="panel_g" x1="0" y1="0" x2="0" y2="1"><stop offset="0" stop-color="#F7EFD9" stop-opacity="1"/><stop offset="1" stop-color="#E4D6B4" stop-opacity="1"/></linearGradient><linearGradient id="metal" x1="0" y1="0" x2="0" y2="1"><stop offset="0" stop-color="#E7EDF3" stop-opacity="1"/><stop offset="0.5" stop-color="#9AA4B2" stop-opacity="1"/><stop offset="1" stop-color="#5A6272" stop-opacity="1"/></linearGradient><filter id="gl" x="-80%" y="-80%" width="260%" height="260%"><feDropShadow dx="0" dy="0" stdDeviation="6" flood-color="#FFD166" flood-opacity="0.95"/></filter><filter id="b4" x="-60%" y="-60%" width="220%" height="220%"><feGaussianBlur stdDeviation="4"/></filter></defs><g id="fp" data-anchor="64.0,64.0" ><path d="M64,10 C96,52 108,72 108,88 a44,44 0 0,1 -88,0 C20,72 32,52 64,10 Z" fill="url(#fl_g)" stroke="#12172A" stroke-width="7"/><path d="M70,44 L46,80 h20 l-8,32 l30,-42 h-22 Z" fill="#FFF7CC" stroke="#12172A" stroke-width="4"/></g></svg><rect width="1920" height="1080" fill="url(#vig)"/></svg>