<svg xmlns="http://www.w3.org/2000/svg" xmlns:xlink="http://www.w3.org/1999/xlink" width="512" height="512" viewBox="0 0 512 512"><defs><radialGradient id="burst_y" cx="0.5" cy="0.5" r="0.5"><stop offset="0" stop-color="#FFF7CC" stop-opacity="1"/><stop offset="0.45" stop-color="#FFD166" stop-opacity="1"/><stop offset="1" stop-color="#F5A623" stop-opacity="0"/></radialGradient><radialGradient id="burst_b" cx="0.5" cy="0.5" r="0.5"><stop offset="0" stop-color="#FFFFFF" stop-opacity="1"/><stop offset="0.4" stop-color="#8FD8FF" stop-opacity="0.95"/><stop offset="1" stop-color="#2FA8E8" stop-opacity="0"/></radialGradient><radialGradient id="frenzy" cx="0.5" cy="0.5" r="0.5"><stop offset="0" stop-color="#FFF0A0" stop-opacity="0"/><stop offset="0.55" stop-color="#FF9F1C" stop-opacity="0.55"/><stop offset="0.82" stop-color="#FF3B00" stop-opacity="0.45"/><stop offset="1" stop-color="#FF3B00" stop-opacity="0"/></radialGradient><radialGradient id="over" cx="0.5" cy="0.5" r="0.5"><stop offset="0" stop-color="#FFFFFF" stop-opacity="0"/><stop offset="0.5" stop-color="#FFE066" stop-opacity="0.65"/><stop offset="0.85" stop-color="#FF9F1C" stop-opacity="0.5"/><stop offset="1" stop-color="#FFB703" stop-opacity="0"/></radialGradient><radialGradient id="rew" cx="0.5" cy="0.5" r="0.5"><stop offset="0" stop-color="#FFFFFF" stop-opacity="0.95"/><stop offset="0.5" stop-color="#FFD166" stop-opacity="0.6"/><stop offset="1" stop-color="#F5A623" stop-opacity="0"/></radialGradient><filter id="gl_y" x="-80%" y="-80%" width="260%" height="260%"><feDropShadow dx="0" dy="0" stdDeviation="10" flood-color="#FFD166" flood-opacity="0.95"/></filter><filter id="gl_b" x="-80%" y="-80%" width="260%" height="260%"><feDropShadow dx="0" dy="0" stdDeviation="10" flood-color="#7FD4FF" flood-opacity="0.95"/></filter><filter id="b6" x="-60%" y="-60%" width="220%" height="220%"><feGaussianBlur stdDeviation="6"/></filter><filter id="b16" x="-60%" y="-60%" width="220%" height="220%"><feGaussianBlur stdDeviation="16"/></filter></defs><g id="crit_burst" data-anchor="256,256" ><path d="M438.1,256.0L344.8,276.3L420.1,335.0L327.2,312.8L369.6,398.4L295.5,338.1L296.5,433.6L256.0,347.1L215.5,433.6L216.5,338.1L142.4,398.4L184.8,312.8L91.9,335.0L167.2,276.3L73.9,256.0L167.2,235.7L91.9,177.0L184.8,199.2L142.4,113.6L216.5,173.9L215.5,78.4L256.0,164.9L296.5,78.4L295.5,173.9L369.6,113.6L327.2,199.2L420.1,177.0L344.8,235.7Z" fill="url(#burst_y)" opacity="0.50"/><path d="M256,256 L475,256" stroke="#FFD166" stroke-width="9" stroke-linecap="round" opacity="0.47"/><path d="M256,256 L458,340" stroke="#FFD166" stroke-width="9" stroke-linecap="round" opacity="0.47"/><path d="M256,256 L411,411" stroke="#FFD166" stroke-width="9" stroke-linecap="round" opacity="0.47"/><path d="M256,256 L340,458" stroke="#FFD166" stroke-width="9" stroke-linecap="round" opacity="0.47"/><path d="M256,256 L256,475" stroke="#FFD166" stroke-width="9" stroke-linecap="round" opacity="0.47"/><path d="M256,256 L172,458" stroke="#FFD166" stroke-width="9" stroke-linecap="round" opacity="0.47"/><path d="M256,256 L101,411" stroke="#FFD166" stroke-width="9" stroke-linecap="round" opacity="0.47"/><path d="M256,256 L54,340" stroke="#FFD166" stroke-width="9" stroke-linecap="round" opacity="0.47"/><path d="M256,256 L37,256" stroke="#FFD166" stroke-width="9" stroke-linecap="round" opacity="0.47"/><path d="M256,256 L54,172" stroke="#FFD166" stroke-width="9" stroke-linecap="round" opacity="0.47"/><path d="M256,256 L101,101" stroke="#FFD166" stroke-width="9" stroke-linecap="round" opacity="0.47"/><path d="M256,256 L172,54" stroke="#FFD166" stroke-width="9" stroke-linecap="round" opacity="0.47"/><path d="M256,256 L256,37" stroke="#FFD166" stroke-width="9" stroke-linecap="round" opacity="0.47"/><path d="M256,256 L340,54" stroke="#FFD166" stroke-width="9" stroke-linecap="round" opacity="0.47"/><path d="M256,256 L411,101" stroke="#FFD166" stroke-width="9" stroke-linecap="round" opacity="0.47"/><path d="M256,256 L458,172" stroke="#FFD166" stroke-width="9" stroke-linecap="round" opacity="0.47"/><circle cx="256" cy="256" r="117" fill="#FFF7CC" opacity="0.16" filter="url(#b16)"/><text x="256" y="286" font-family="Verdana,DejaVu Sans,sans-serif" font-size="96" font-weight="bold" fill="#8A5B08" text-anchor="middle" stroke="#FFF7CC" stroke-width="10" paint-order="stroke" opacity="0.64">PP</text></g></svg>