<svg xmlns="http://www.w3.org/2000/svg" xmlns:xlink="http://www.w3.org/1999/xlink" width="512" height="512" viewBox="0 0 512 512"><defs><radialGradient id="burst_y" cx="0.5" cy="0.5" r="0.5"><stop offset="0" stop-color="#FFF7CC" stop-opacity="1"/><stop offset="0.45" stop-color="#FFD166" stop-opacity="1"/><stop offset="1" stop-color="#F5A623" stop-opacity="0"/></radialGradient><radialGradient id="burst_b" cx="0.5" cy="0.5" r="0.5"><stop offset="0" stop-color="#FFFFFF" stop-opacity="1"/><stop offset="0.4" stop-color="#8FD8FF" stop-opacity="0.95"/><stop offset="1" stop-color="#2FA8E8" stop-opacity="0"/></radialGradient><radialGradient id="frenzy" cx="0.5" cy="0.5" r="0.5"><stop offset="0" stop-color="#FFF0A0" stop-opacity="0"/><stop offset="0.55" stop-color="#FF9F1C" stop-opacity="0.55"/><stop offset="0.82" stop-color="#FF3B00" stop-opacity="0.45"/><stop offset="1" stop-color="#FF3B00" stop-opacity="0"/></radialGradient><radialGradient id="over" cx="0.5" cy="0.5" r="0.5"><stop offset="0" stop-color="#FFFFFF" stop-opacity="0"/><stop offset="0.5" stop-color="#FFE066" stop-opacity="0.65"/><stop offset="0.85" stop-color="#FF9F1C" stop-opacity="0.5"/><stop offset="1" stop-color="#FFB703" stop-opacity="0"/></radialGradient><radialGradient id="rew" cx="0.5" cy="0.5" r="0.5"><stop offset="0" stop-color="#FFFFFF" stop-opacity="0.95"/><stop offset="0.5" stop-color="#FFD166" stop-opacity="0.6"/><stop offset="1" stop-color="#F5A623" stop-opacity="0"/></radialGradient><filter id="gl_y" x="-80%" y="-80%" width="260%" height="260%"><feDropShadow dx="0" dy="0" stdDeviation="10" flood-color="#FFD166" flood-opacity="0.95"/></filter><filter id="gl_b" x="-80%" y="-80%" width="260%" height="260%"><feDropShadow dx="0" dy="0" stdDeviation="10" flood-color="#7FD4FF" flood-opacity="0.95"/></filter><filter id="b6" x="-60%" y="-60%" width="220%" height="220%"><feGaussianBlur stdDeviation="6"/></filter><filter id="b16" x="-60%" y="-60%" width="220%" height="220%"><feGaussianBlur stdDeviation="16"/></filter></defs><g id="flush_vortex" data-anchor="256,256" ><ellipse cx="256" cy="256" rx="210" ry="92" fill="url(#burst_b)" opacity="0.75"/><polyline points="266.7,258.9 266.6,259.6 266.2,260.4 265.6,261.2 264.6,261.9 263.4,262.6 261.9,263.3 260.1,263.9 258.0,264.5 255.8,264.9 253.3,265.2 250.6,265.4 247.8,265.5 244.9,265.4 242.0,265.1 239.0,264.7 236.2,264.1 233.4,263.4 230.7,262.5 228.3,261.4 226.2,260.2 224.3,258.9 222.8,257.4 221.7,255.8 221.1,254.1 220.9,252.4 221.2,250.7 222.0,248.9 223.3,247.1 225.2,245.4 227.5,243.7 230.4,242.1 233.8,240.7 237.6,239.4 241.9,238.2 246.5,237.3 251.5,236.6 256.7,236.1 262.1,235.9 267.7,235.9 273.3,236.2 278.9,236.8 284.4,237.7 289.7,238.8 294.7,240.2 299.4,241.9 303.7,243.9 307.5,246.0 310.7,248.4 313.3,250.9 315.3,253.6 316.5,256.4 316.9,259.3 316.5,262.3 315.4,265.2 313.4,268.1 310.5,271.0 306.9,273.7 302.5,276.3 297.4,278.6 291.6,280.8 285.2,282.6 278.2,284.2 270.7,285.5 262.8,286.4 254.6,286.9 246.3,287.0 237.8,286.8 229.4,286.1 221.1,285.0 213.1,283.5 205.4,281.6 198.3,279.3 191.7,276.7 185.7,273.7 180.6,270.5 176.3,267.0 173.0,263.2 170.6,259.3 169.4,255.3 169.2,251.1 170.1,247.0 172.2,242.9 175.4,238.8 179.7,234.9 185.1,231.2 191.5,227.7 198.9,224.6 207.2,221.7 216.2,219.3 226.0,217.3 236.3,215.7 247.1,214.7 258.2,214.1 269.5,214.1 280.8,214.6 292.0,215.7 303.0,217.3 313.6,219.4 323.6,222.0 332.9,225.2 341.4,228.7 348.9,232.7 355.4,237.1 360.7,241.8 364.8,246.7 367.5,251.8 368.8,257.1 368.7,262.5 367.2,267.9 364.2,273.2 359.8,278.3 354.0,283.3 346.8,288.0 338.3,292.3 328.7,296.3 317.9,299.8 306.2,302.8 293.7,305.2 280.5,307.1 266.8,308.3 252.8,308.9 238.6,308.8 224.3,308.0 210.3,306.6 196.7,304.4 183.6,301.7 171.3,298.3 159.9,294.3 149.5,289.8 140.4,284.7 132.6,279.3 126.2,273.4 121.5,267.3 118.4,260.9 117.0,254.4 117.4,247.8 119.5,241.2 123.5,234.8 129.1,228.5 136.5,222.5 145.5,216.8 156.0,211.6 167.9,206.8 181.1,202.6 195.5,199.1 210.7,196.2 226.8,194.1 243.4,192.7 260.4,192.1 277.6,192.3 294.7,193.4 311.5,195.2 327.8,197.9 343.3,201.3 358.0,205.5 371.5,210.3 383.7,215.8 394.5,221.9 403.6,228.4 410.9,235.4 416.3,242.8 419.8,250.4 421.2,258.1 420.5,266.0 417.7,273.7 412.8,281.4 405.9,288.8 397.0,295.9 386.1,302.5 373.6,308.6 359.3,314.1 343.6,319.0 326.7,323.1 308.6,326.3 289.7,328.8 270.1,330.3 250.2,330.9 230.1,330.5 210.1,329.2" fill="none" stroke="#FFFFFF" stroke-width="9" stroke-linecap="round" opacity="0.92" filter="url(#gl_b)"/><ellipse cx="256" cy="256" rx="46" ry="18" fill="#1E7FC4"/></g></svg>