<svg xmlns="http://www.w3.org/2000/svg" xmlns:xlink="http://www.w3.org/1999/xlink" width="512" height="512" viewBox="0 0 512 512"><defs><radialGradient id="gold" cx="0.5" cy="0.5" r="0.5"><stop offset="0" stop-color="#FFF7CC" stop-opacity="1"/><stop offset="0.45" stop-color="#FFD166" stop-opacity="1"/><stop offset="1" stop-color="#C08A12" stop-opacity="1"/></radialGradient><radialGradient id="goldglow" cx="0.5" cy="0.5" r="0.5"><stop offset="0" stop-color="#FFF7CC" stop-opacity="0.95"/><stop offset="0.5" stop-color="#FFD166" stop-opacity="0.45"/><stop offset="1" stop-color="#F5A623" stop-opacity="0"/></radialGradient><radialGradient id="sludge" cx="0.5" cy="0.5" r="0.5"><stop offset="0" stop-color="#A5682A" stop-opacity="1"/><stop offset="1" stop-color="#3E2109" stop-opacity="1"/></radialGradient><radialGradient id="heat" cx="0.5" cy="0.5" r="0.5"><stop offset="0" stop-color="#FFF0A0" stop-opacity="0.9"/><stop offset="0.5" stop-color="#FF6B00" stop-opacity="0.55"/><stop offset="1" stop-color="#FF2D00" stop-opacity="0"/></radialGradient><linearGradient id="card" x1="0" y1="0" x2="0" y2="1"><stop offset="0" stop-color="#5B2E8C" stop-opacity="1"/><stop offset="1" stop-color="#2B1150" stop-opacity="1"/></linearGradient><linearGradient id="pipe" x1="0" y1="0" x2="0" y2="1"><stop offset="0" stop-color="#B9C5D1" stop-opacity="1"/><stop offset="0.5" stop-color="#7E8C99" stop-opacity="1"/><stop offset="1" stop-color="#4A5866" stop-opacity="1"/></linearGradient><filter id="gl_g" x="-80%" y="-80%" width="260%" height="260%"><feDropShadow dx="0" dy="0" stdDeviation="14" flood-color="#FFD166" flood-opacity="0.95"/></filter><filter id="gl_m" x="-80%" y="-80%" width="260%" height="260%"><feDropShadow dx="0" dy="0" stdDeviation="14" flood-color="#C77DFF" flood-opacity="0.95"/></filter><filter id="gl_c" x="-80%" y="-80%" width="260%" height="260%"><feDropShadow dx="0" dy="0" stdDeviation="12" flood-color="#00F0FF" flood-opacity="0.95"/></filter><filter id="b6" x="-60%" y="-60%" width="220%" height="220%"><feGaussianBlur stdDeviation="6"/></filter><filter id="b18" x="-60%" y="-60%" width="220%" height="220%"><feGaussianBlur stdDeviation="18"/></filter></defs><g id="burrito_rush" data-anchor="256,300" ><circle cx="256" cy="300" r="250" fill="url(#heat)"/><path d="M430,430 q-40,-70 -4,-130 q-2,58 26,74 q22,-34 8,-76 q56,66 26,132 Z" fill="#FF6B00" opacity="0.9" transform="scale(1) translate(0,0)"/><path d="M430,430 q-40,-70 -4,-130 q-2,58 26,74 q22,-34 8,-76 q56,66 26,132 Z" fill="#FFD166" opacity="0.95" transform="scale(0.62) translate(168,168)"/><path d="M150,470 q-40,-70 -4,-130 q-2,58 26,74 q22,-34 8,-76 q56,66 26,132 Z" fill="#FF3B00" opacity="0.8" transform="scale(0.8) translate(40,40)"/><g transform="rotate(-24 256 300)"><rect x="120" y="230" width="280" height="150" rx="70" fill="#E8C48A" stroke="#8A5B22" stroke-width="8"/><path d="M140,250 q120,40 240,0" fill="none" stroke="#C79E5E" stroke-width="8" opacity="0.9"/><path d="M136,352 q120,-40 250,0" fill="none" stroke="#C79E5E" stroke-width="8" opacity="0.9"/><path d="M120,300 q-40,-40 -10,-70 q34,26 46,10 Z" fill="#D9B173" stroke="#8A5B22" stroke-width="7"/><circle cx="200" cy="286" r="14" fill="#fff" stroke="#2A1509" stroke-width="5"/><circle cx="266" cy="286" r="14" fill="#fff" stroke="#2A1509" stroke-width="5"/><circle cx="202" cy="288" r="6" fill="#2A1509"/><circle cx="268" cy="288" r="6" fill="#2A1509"/><path d="M206,326 q30,26 58,0" fill="none" stroke="#2A1509" stroke-width="7" stroke-linecap="round"/></g><g transform="rotate(-20 90 150)"><path d="M90,150 q30,10 34,44 q-30,4 -34,-44 Z" fill="#D9382C" stroke="#7A1010" stroke-width="4"/><path d="M90,150 l-10,-14" stroke="#3F7A1F" stroke-width="7" stroke-linecap="round"/></g><g transform="rotate(30 400 130)"><path d="M400,130 q30,10 34,44 q-30,4 -34,-44 Z" fill="#D9382C" stroke="#7A1010" stroke-width="4"/><path d="M400,130 l-10,-14" stroke="#3F7A1F" stroke-width="7" stroke-linecap="round"/></g><g transform="rotate(15 60 330)"><path d="M60,330 q30,10 34,44 q-30,4 -34,-44 Z" fill="#D9382C" stroke="#7A1010" stroke-width="4"/><path d="M60,330 l-10,-14" stroke="#3F7A1F" stroke-width="7" stroke-linecap="round"/></g><g transform="rotate(-35 450 300)"><path d="M450,300 q30,10 34,44 q-30,4 -34,-44 Z" fill="#D9382C" stroke="#7A1010" stroke-width="4"/><path d="M450,300 l-10,-14" stroke="#3F7A1F" stroke-width="7" stroke-linecap="round"/></g></g></svg>