<svg xmlns="http://www.w3.org/2000/svg" xmlns:xlink="http://www.w3.org/1999/xlink" width="512" height="512" viewBox="0 0 512 512"><title>Poop Clicker skin / God Poop</title><g id="skin_god" data-anchor="256,402" data-skin="god" data-name="God Poop" data-expression="normal"><g id="bg_0"><defs><radialGradient id="gb6762"><stop offset="0" stop-color="#FFF7CC" stop-opacity="0.6"/><stop offset="1" stop-color="#FFF7CC" stop-opacity="0"/></radialGradient></defs><circle cx="256" cy="330" r="270" fill="url(#gb6762)"/></g><g id="bg_1"><ellipse cx="256" cy="486" rx="180" ry="30" fill="#FFF7CC" opacity="0.45"/><path d="M256,300 L576,300" stroke="#FFE9A8" stroke-width="12" opacity="0.22"/><path d="M256,300 L557,409" stroke="#FFE9A8" stroke-width="12" opacity="0.22"/><path d="M256,300 L501,506" stroke="#FFE9A8" stroke-width="12" opacity="0.22"/><path d="M256,300 L416,577" stroke="#FFE9A8" stroke-width="12" opacity="0.22"/><path d="M256,300 L312,615" stroke="#FFE9A8" stroke-width="12" opacity="0.22"/><path d="M256,300 L200,615" stroke="#FFE9A8" stroke-width="12" opacity="0.22"/><path d="M256,300 L96,577" stroke="#FFE9A8" stroke-width="12" opacity="0.22"/><path d="M256,300 L11,506" stroke="#FFE9A8" stroke-width="12" opacity="0.22"/><path d="M256,300 L-45,409" stroke="#FFE9A8" stroke-width="12" opacity="0.22"/><path d="M256,300 L-64,300" stroke="#FFE9A8" stroke-width="12" opacity="0.22"/><path d="M256,300 L-45,191" stroke="#FFE9A8" stroke-width="12" opacity="0.22"/><path d="M256,300 L11,94" stroke="#FFE9A8" stroke-width="12" opacity="0.22"/><path d="M256,300 L96,23" stroke="#FFE9A8" stroke-width="12" opacity="0.22"/><path d="M256,300 L200,-15" stroke="#FFE9A8" stroke-width="12" opacity="0.22"/><path d="M256,300 L312,-15" stroke="#FFE9A8" stroke-width="12" opacity="0.22"/><path d="M256,300 L416,23" stroke="#FFE9A8" stroke-width="12" opacity="0.22"/><path d="M256,300 L501,94" stroke="#FFE9A8" stroke-width="12" opacity="0.22"/><path d="M256,300 L557,191" stroke="#FFE9A8" stroke-width="12" opacity="0.22"/></g><svg xmlns="http://www.w3.org/2000/svg" xmlns:xlink="http://www.w3.org/1999/xlink" x="0" y="0" width="512" height="512" viewBox="0 0 512 512"><title>Poop Clicker / sk_god / normal</title><defs><radialGradient id="body_sk_god" cx="0.36" cy="0.28" r="0.85"><stop offset="0" stop-color="#FFD75E" stop-opacity="1"/><stop offset="0.55" stop-color="#E8B32A" stop-opacity="1"/><stop offset="1" stop-color="#8A5B08" stop-opacity="1"/></radialGradient><radialGradient id="tip_sk_god" cx="0.35" cy="0.25" r="0.9"><stop offset="0" stop-color="#FFF0B0" stop-opacity="1"/><stop offset="1" stop-color="#E8B32A" stop-opacity="1"/></radialGradient><radialGradient id="shadow" cx="0.5" cy="0.5" r="0.5"><stop offset="0" stop-color="#000" stop-opacity="0.45"/><stop offset="1" stop-color="#000" stop-opacity="0"/></radialGradient><linearGradient id="gloss_sk_god" x1="0" y1="0" x2="0" y2="1"><stop offset="0" stop-color="#FFFFFF" stop-opacity="0.55"/><stop offset="1" stop-color="#FFFFFF" stop-opacity="0"/></linearGradient><filter id="soft" x="-60%" y="-60%" width="220%" height="220%"><feGaussianBlur stdDeviation="8"/></filter><filter id="soft2" x="-60%" y="-60%" width="220%" height="220%"><feGaussianBlur stdDeviation="18"/></filter><filter id="glow_a" x="-80%" y="-80%" width="260%" height="260%"><feDropShadow dx="0" dy="0" stdDeviation="10" flood-color="#FFF7CC" flood-opacity="0.95"/></filter></defs><g id="poop_character" data-anchor="256,402" data-skin="sk_god" data-expression="normal"><g id="shadow" data-anchor="256,470" ><ellipse cx="256" cy="470" rx="168" ry="30" fill="url(#shadow)"/></g><g id="arm_left" data-anchor="118,372" ><path d="M118,372 Q50.8,347.2 6,310" fill="none" stroke="#E8B32A" stroke-width="28" stroke-linecap="round"/><path d="M118,372 Q50.8,347.2 6,310" fill="none" stroke="#3A2503" stroke-width="34" stroke-linecap="round" opacity="0.001"/><circle cx="6" cy="310" r="27" fill="#FFD75E" stroke="#3A2503" stroke-width="6"/></g><g id="arm_right" data-anchor="394,372" ><path d="M394,372 Q461.2,347.2 506,310" fill="none" stroke="#E8B32A" stroke-width="28" stroke-linecap="round"/><path d="M394,372 Q461.2,347.2 506,310" fill="none" stroke="#3A2503" stroke-width="34" stroke-linecap="round" opacity="0.001"/><circle cx="506" cy="310" r="27" fill="#FFD75E" stroke="#3A2503" stroke-width="6"/></g><g id="body" data-anchor="256,402" ><path d="M88.0,402.0 C82.0,265.5 432.0,265.5 424.0,402.0 C424.0,459.4 88.0,459.4 88.0,402.0 Z" fill="url(#body_sk_god)" stroke="#3A2503" stroke-width="7" stroke-linejoin="round"/><path d="M122.0,316.0 C116.0,199.0 372.0,199.0 378.0,316.0 C378.0,365.2 122.0,365.2 122.0,316.0 Z" fill="url(#body_sk_god)" stroke="#3A2503" stroke-width="7" stroke-linejoin="round"/><path d="M167.0,240.0 C161.0,148.4 357.0,148.4 351.0,240.0 C351.0,278.5 167.0,278.5 167.0,240.0 Z" fill="url(#body_sk_god)" stroke="#3A2503" stroke-width="7" stroke-linejoin="round"/></g><g id="top_swirl" data-anchor="264,192" ><path d="M214.0,192.0 C208.0,133.5 314.0,133.5 314.0,192.0 C314.0,216.6 214.0,216.6 214.0,192.0 Z" fill="url(#tip_sk_god)" stroke="#3A2503" stroke-width="7" stroke-linejoin="round"/><path d="M234,178 C226,108 310,100 298,166 C292,128 256,130 260,176 Z" fill="url(#tip_sk_god)" stroke="#3A2503" stroke-width="7" stroke-linejoin="round"/></g><g id="highlight" data-anchor="256,300" ><ellipse cx="176" cy="372" rx="52" ry="26" fill="url(#gloss_sk_god)" transform="rotate(-24 176 372)"/><ellipse cx="188" cy="292" rx="40" ry="19" fill="url(#gloss_sk_god)" transform="rotate(-22 188 292)"/><ellipse cx="214" cy="224" rx="30" ry="14" fill="url(#gloss_sk_god)" transform="rotate(-20 214 224)"/></g></g></svg><g id="skin_layer_0"><clipPath id="bodyclip"><path d="M88,402 C82,262 424,262 424,402 C424,462 88,462 88,402 Z"/><ellipse cx="252" cy="320" rx="140" ry="80"/><ellipse cx="259" cy="242" rx="94" ry="52"/><ellipse cx="264" cy="194" rx="52" ry="34"/></clipPath><g clip-path="url(#bodyclip)"><path d="M100,300 L200,180 L260,200 L140,420 Z" fill="#FFFFFF" opacity="0.22"/><path d="M300,430 L360,300 L392,330 L340,452 Z" fill="#FFFFFF" opacity="0.15"/></g></g><g id="skin_layer_1"><ellipse cx="264" cy="96" rx="120" ry="34" fill="none" stroke="#FFD166" stroke-width="16" filter="url(#gl)"/><ellipse cx="264" cy="96" rx="120" ry="34" fill="url(#halo)" opacity="0.35"/></g><g id="skin_layer_2"><path d="M150,330 q-120,-90 -160,-10 q40,60 160,44 Z" fill="#FFF7E0" stroke="#E8D08A" stroke-width="6" stroke-linejoin="round"/><path d="M362,330 q120,-90 160,-10 q-40,60 -160,44 Z" fill="#FFF7E0" stroke="#E8D08A" stroke-width="6" stroke-linejoin="round"/></g><g id="skin_layer_3"><path d="M208.0,133.0L189.8,138.8L184.0,157.0L178.2,138.8L160.0,133.0L178.2,127.2L184.0,109.0L189.8,127.2Z" fill="#FFFFFF" opacity="0.95"/><path d="M100.0,159.0L85.6,163.6L81.0,178.0L76.4,163.6L62.0,159.0L76.4,154.4L81.0,140.0L85.6,154.4Z" fill="#FFFFFF" opacity="0.95"/><path d="M445.0,101.0L437.4,103.4L435.0,111.0L432.6,103.4L425.0,101.0L432.6,98.6L435.0,91.0L437.4,98.6Z" fill="#FFFFFF" opacity="0.95"/><path d="M343.0,283.0L324.0,289.0L318.0,308.0L312.0,289.0L293.0,283.0L312.0,277.0L318.0,258.0L324.0,277.0Z" fill="#FFFFFF" opacity="0.95"/><path d="M359.0,242.0L347.6,245.6L344.0,257.0L340.4,245.6L329.0,242.0L340.4,238.4L344.0,227.0L347.6,238.4Z" fill="#FFFFFF" opacity="0.95"/></g><g id="face" data-anchor="256,296" ><g id="eyes" data-anchor="256,296" ><ellipse cx="211" cy="296" rx="35" ry="37.1" fill="#FFFFFF" stroke="#3A2503" stroke-width="6"/><circle cx="214" cy="300" r="14" fill="#3A2503"/><circle cx="208" cy="291" r="5" fill="#fff"/><ellipse cx="301" cy="296" rx="35" ry="37.1" fill="#FFFFFF" stroke="#3A2503" stroke-width="6"/><circle cx="304" cy="300" r="14" fill="#3A2503"/><circle cx="298" cy="291" r="5" fill="#fff"/></g><g id="mouth" data-anchor="256,366" ><path d="M210,358 Q256,400 302,358" fill="none" stroke="#3A2503" stroke-width="11" stroke-linecap="round"/></g></g></g></svg>