<svg xmlns="http://www.w3.org/2000/svg" xmlns:xlink="http://www.w3.org/1999/xlink" width="1440" height="2560" viewBox="0 0 1440 2560"><title>World / home_bathroom</title><defs><linearGradient id="wall" x1="0" y1="0" x2="0" y2="1"><stop offset="0" stop-color="#2C6E86" stop-opacity="1"/><stop offset="1" stop-color="#245C71" stop-opacity="1"/></linearGradient><linearGradient id="floor" x1="0" y1="0" x2="0" y2="1"><stop offset="0" stop-color="#3A4A56" stop-opacity="1"/><stop offset="1" stop-color="#26333C" stop-opacity="1"/></linearGradient><radialGradient id="lamp" cx="0.5" cy="0.5" r="0.5"><stop offset="0" stop-color="#FFD9A0" stop-opacity="0.95"/><stop offset="0.45" stop-color="#FFD9A0" stop-opacity="0.35"/><stop offset="1" stop-color="#FFD9A0" stop-opacity="0"/></radialGradient><radialGradient id="vig" cx="0.5" cy="0.5" r="0.5"><stop offset="0" stop-color="#000" stop-opacity="0"/><stop offset="0.62" stop-color="#000" stop-opacity="0.1"/><stop offset="1" stop-color="#000" stop-opacity="0.62"/></radialGradient><radialGradient id="steam" cx="0.5" cy="0.5" r="0.5"><stop offset="0" stop-color="#FFFFFF" stop-opacity="0.55"/><stop offset="1" stop-color="#FFFFFF" stop-opacity="0"/></radialGradient><filter id="b8" x="-60%" y="-60%" width="220%" height="220%"><feGaussianBlur stdDeviation="8"/></filter><filter id="b30" x="-60%" y="-60%" width="220%" height="220%"><feGaussianBlur stdDeviation="30"/></filter><filter id="b60" x="-60%" y="-60%" width="220%" height="220%"><feGaussianBlur stdDeviation="60"/></filter><filter id="neon" x="-80%" y="-80%" width="260%" height="260%"><feDropShadow dx="0" dy="0" stdDeviation="18" flood-color="#7FD4FF" flood-opacity="0.95"/></filter></defs><g id="midground" ><path d="M700,0 L740,0 L740,240 L700,240 Z" fill="#2B2B2B"/><path d="M600,240 L840,240 L800,340 L640,340 Z" fill="#3A3A3A" stroke="#191919" stroke-width="6"/><ellipse cx="720" cy="342" rx="82" ry="24" fill="#FFE9B0" filter="url(#b8)"/><ellipse cx="720" cy="520" rx="330" ry="300" fill="url(#lamp)" opacity="0.65"/><rect x="430" y="430" width="580" height="520" rx="40" fill="#9FD4E6" stroke="#20343F" stroke-width="14" /><rect x="470" y="470" width="500" height="440" rx="26" fill="#BFE6F2" opacity="0.85"/><path d="M470,910 L720,470 L860,470 L520,910 Z" fill="#FFFFFF" opacity="0.18"/><rect x="300" y="1020" width="840" height="40" rx="12" fill="#6B4A2A" stroke="#2E1D0C" stroke-width="8" /><rect x="400" y="920" width="52" height="100" rx="12" fill="#7FD4FF" stroke="#22303A" stroke-width="6" /><rect x="414" y="890" width="24" height="36" rx="8" fill="#DDE6EC" stroke="#22303A" stroke-width="5" /><rect x="470" y="920" width="52" height="100" rx="12" fill="#FF9BB0" stroke="#22303A" stroke-width="6" /><rect x="484" y="890" width="24" height="36" rx="8" fill="#DDE6EC" stroke="#22303A" stroke-width="5" /><rect x="540" y="920" width="52" height="100" rx="12" fill="#B5E36A" stroke="#22303A" stroke-width="6" /><rect x="554" y="890" width="24" height="36" rx="8" fill="#DDE6EC" stroke="#22303A" stroke-width="5" /><rect x="980" y="920" width="52" height="100" rx="12" fill="#FFD166" stroke="#22303A" stroke-width="6" /><rect x="994" y="890" width="24" height="36" rx="8" fill="#DDE6EC" stroke="#22303A" stroke-width="5" /><rect x="1050" y="920" width="52" height="100" rx="12" fill="#C7A2FF" stroke="#22303A" stroke-width="6" /><rect x="1064" y="890" width="24" height="36" rx="8" fill="#DDE6EC" stroke="#22303A" stroke-width="5" /><path d="M690,1020 q-40,-90 0,-150 q40,60 0,150 Z" fill="#4FA34F" stroke="#20401F" stroke-width="6"/><path d="M760,1020 q-40,-120 10,-180 q40,80 -10,180 Z" fill="#5FBF5F" stroke="#20401F" stroke-width="6"/><rect x="180" y="1180" width="420" height="90" rx="30" fill="#EDF3F7" stroke="#7E8C99" stroke-width="10" /><path d="M240,1270 l60,180 l160,0 l60,-180 Z" fill="#E2EAF0" stroke="#7E8C99" stroke-width="10"/><rect x="360" y="1450" width="40" height="230" fill="#D8E1E8" stroke="#7E8C99" stroke-width="8"/></g></svg>