<svg xmlns="http://www.w3.org/2000/svg" xmlns:xlink="http://www.w3.org/1999/xlink" width="1440" height="2560" viewBox="0 0 1440 2560"><title>World / office_toilet</title><defs><linearGradient id="wall" x1="0" y1="0" x2="0" y2="1"><stop offset="0" stop-color="#D8D3C6" stop-opacity="1"/><stop offset="1" stop-color="#C4BEB0" stop-opacity="1"/></linearGradient><linearGradient id="floor" x1="0" y1="0" x2="0" y2="1"><stop offset="0" stop-color="#8E8878" stop-opacity="1"/><stop offset="1" stop-color="#6E6A5D" stop-opacity="1"/></linearGradient><radialGradient id="lamp" cx="0.5" cy="0.5" r="0.5"><stop offset="0" stop-color="#EAF6FF" stop-opacity="0.95"/><stop offset="0.45" stop-color="#EAF6FF" stop-opacity="0.35"/><stop offset="1" stop-color="#EAF6FF" stop-opacity="0"/></radialGradient><radialGradient id="vig" cx="0.5" cy="0.5" r="0.5"><stop offset="0" stop-color="#000" stop-opacity="0"/><stop offset="0.62" stop-color="#000" stop-opacity="0.1"/><stop offset="1" stop-color="#000" stop-opacity="0.62"/></radialGradient><radialGradient id="steam" cx="0.5" cy="0.5" r="0.5"><stop offset="0" stop-color="#FFFFFF" stop-opacity="0.55"/><stop offset="1" stop-color="#FFFFFF" stop-opacity="0"/></radialGradient><filter id="b8" x="-60%" y="-60%" width="220%" height="220%"><feGaussianBlur stdDeviation="8"/></filter><filter id="b30" x="-60%" y="-60%" width="220%" height="220%"><feGaussianBlur stdDeviation="30"/></filter><filter id="b60" x="-60%" y="-60%" width="220%" height="220%"><feGaussianBlur stdDeviation="60"/></filter><filter id="neon" x="-80%" y="-80%" width="260%" height="260%"><feDropShadow dx="0" dy="0" stdDeviation="18" flood-color="#9AA4B2" flood-opacity="0.95"/></filter></defs><g id="midground" ><rect x="60" y="700" width="60" height="1100" rx="8" fill="#B8B2A2" stroke="#7D786B" stroke-width="8" /><rect x="1320" y="700" width="60" height="1100" rx="8" fill="#B8B2A2" stroke="#7D786B" stroke-width="8" /><rect x="120" y="760" width="1200" height="26" rx="8" fill="#CFC9BA" stroke="#7D786B" stroke-width="6" /><rect x="520" y="300" width="400" height="90" rx="10" fill="#F2F7FF" stroke="#8E8878" stroke-width="8" /><circle cx="1120" cy="560" r="110" fill="#F5F5F0" stroke="#7D786B" stroke-width="12"/><path d="M1120,560 L1120,490 M1120,560 L1170,590" stroke="#333" stroke-width="10" stroke-linecap="round"/><rect x="200" y="900" width="300" height="200" rx="16" fill="#DCD6C6" stroke="#7D786B" stroke-width="10" /></g></svg>