<svg xmlns="http://www.w3.org/2000/svg" xmlns:xlink="http://www.w3.org/1999/xlink" width="256" height="256" viewBox="0 0 256 256"><defs><radialGradient id="pp_g" cx="0.5" cy="0.5" r="0.5"><stop offset="0" stop-color="#FFE9A8" stop-opacity="1"/><stop offset="0.5" stop-color="#F5A623" stop-opacity="1"/><stop offset="1" stop-color="#B36B00" stop-opacity="1"/></radialGradient><radialGradient id="gtp_g" cx="0.5" cy="0.5" r="0.5"><stop offset="0" stop-color="#D9C2FF" stop-opacity="1"/><stop offset="0.5" stop-color="#8E5CF7" stop-opacity="1"/><stop offset="1" stop-color="#4B22A8" stop-opacity="1"/></radialGradient><radialGradient id="fl_g" cx="0.5" cy="0.5" r="0.5"><stop offset="0" stop-color="#BFEBFF" stop-opacity="1"/><stop offset="0.5" stop-color="#2FA8E8" stop-opacity="1"/><stop offset="1" stop-color="#12608F" stop-opacity="1"/></radialGradient><linearGradient id="btn_green" x1="0" y1="0" x2="0" y2="1"><stop offset="0" stop-color="#68D94A" stop-opacity="1"/><stop offset="1" stop-color="#2E8C18" stop-opacity="1"/></linearGradient><linearGradient id="btn_blue" x1="0" y1="0" x2="0" y2="1"><stop offset="0" stop-color="#5EA5FF" stop-opacity="1"/><stop offset="1" stop-color="#1B54B8" stop-opacity="1"/></linearGradient><linearGradient id="btn_red" x1="0" y1="0" x2="0" y2="1"><stop offset="0" stop-color="#F0665A" stop-opacity="1"/><stop offset="1" stop-color="#A8180E" stop-opacity="1"/></linearGradient><linearGradient id="btn_grey" x1="0" y1="0" x2="0" y2="1"><stop offset="0" stop-color="#7C8496" stop-opacity="1"/><stop offset="1" stop-color="#464E5E" stop-opacity="1"/></linearGradient><linearGradient id="btn_gold" x1="0" y1="0" x2="0" y2="1"><stop offset="0" stop-color="#FFD97A" stop-opacity="1"/><stop offset="1" stop-color="#C08A12" stop-opacity="1"/></linearGradient><linearGradient id="panel_g" x1="0" y1="0" x2="0" y2="1"><stop offset="0" stop-color="#F7EFD9" stop-opacity="1"/><stop offset="1" stop-color="#E4D6B4" stop-opacity="1"/></linearGradient><linearGradient id="metal" x1="0" y1="0" x2="0" y2="1"><stop offset="0" stop-color="#E7EDF3" stop-opacity="1"/><stop offset="0.5" stop-color="#9AA4B2" stop-opacity="1"/><stop offset="1" stop-color="#5A6272" stop-opacity="1"/></linearGradient><filter id="gl" x="-80%" y="-80%" width="260%" height="260%"><feDropShadow dx="0" dy="0" stdDeviation="6" flood-color="#FFD166" flood-opacity="0.95"/></filter><filter id="b4" x="-60%" y="-60%" width="220%" height="220%"><feGaussianBlur stdDeviation="4"/></filter></defs><g id="rarity_epic" ><rect x="14" y="14" width="228" height="228" rx="26" fill="#141A29" stroke="#A855F7" stroke-width="10" /><rect x="30" y="30" width="196" height="196" rx="18" fill="none" stroke="#A855F7" stroke-width="4" opacity="0.6"/><path d="M20.0,20.0L46.0,20.0L20.0,46.0Z" fill="#A855F7" opacity="0.9" transform="rotate(0 20 20)"/><path d="M236.0,20.0L262.0,20.0L236.0,46.0Z" fill="#A855F7" opacity="0.9" transform="rotate(90 236 20)"/><path d="M236.0,236.0L262.0,236.0L236.0,262.0Z" fill="#A855F7" opacity="0.9" transform="rotate(180 236 236)"/><path d="M20.0,236.0L46.0,236.0L20.0,262.0Z" fill="#A855F7" opacity="0.9" transform="rotate(270 20 236)"/><text x="128.0" y="226" font-family="Verdana,DejaVu Sans,sans-serif" font-size="22" font-weight="bold" fill="#A855F7" text-anchor="middle" letter-spacing="3">EPIC</text></g></svg>